<svg version="1.1" xmlns="http://www.w3.org/2000/svg" viewBox="0 0 703.4170641598708 919.1714393902963" width="1406.8341283197417" height="1838.3428787805926">
  <!-- svg-source:excalidraw -->
  
  <defs>
    <style class="style-fonts">
      @font-face {
        font-family: "Virgil";
        src: url("https://file%2B.vscode-resource.vscode-cdn.net/Users/antoineprevors/.vscode/extensions/pomdtr.excalidraw-editor-3.5.1/public//dist/excalidraw-assets/Virgil.woff2");
      }
      @font-face {
        font-family: "Cascadia";
        src: url("https://file%2B.vscode-resource.vscode-cdn.net/Users/antoineprevors/.vscode/extensions/pomdtr.excalidraw-editor-3.5.1/public//dist/excalidraw-assets/Cascadia.woff2");
      }
    </style>
  </defs>
  <rect x="0" y="0" width="703.4170641598708" height="919.1714393902963" fill="#ffffff"></rect><g stroke-linecap="round" transform="translate(10 17.22641598505342) rotate(0 341.7085320799354 445.97251170262143)"><path d="M32 0 M32 0 C160.81 -2.61, 288.67 -1.86, 651.42 0 M32 0 C239.15 0.27, 446.04 0.46, 651.42 0 M651.42 0 C671.23 -0.14, 681.85 10.35, 683.42 32 M651.42 0 C672.35 -2.14, 681.46 10.44, 683.42 32 M683.42 32 C679.91 208.13, 679.92 383.83, 683.42 859.95 M683.42 32 C685.17 359.78, 685.24 687.74, 683.42 859.95 M683.42 859.95 C684.37 881.79, 674.28 893.94, 651.42 891.95 M683.42 859.95 C685.4 879.16, 672.69 889.91, 651.42 891.95 M651.42 891.95 C511.07 892.24, 369.28 892.64, 32 891.95 M651.42 891.95 C442.26 890.67, 232.85 890.94, 32 891.95 M32 891.95 C10.78 892.41, -0.25 883.07, 0 859.95 M32 891.95 C10.41 890.88, -0.48 880.61, 0 859.95 M0 859.95 C2.36 662.07, 2.49 464.65, 0 32 M0 859.95 C0.39 633.82, 0.89 407.83, 0 32 M0 32 C1.31 11.4, 10.92 -1.83, 32 0 M0 32 C1.17 10.44, 9.21 -0.18, 32 0" stroke="#000000" stroke-width="1" fill="none"></path></g><g stroke-linecap="round" transform="translate(137.17969568758775 814.9901797941901) rotate(0 42.21645761313681 37.90002319909706)"><path d="M18.95 0 M18.95 0 C34.76 0.21, 53.11 -0.9, 65.48 0 M18.95 0 C30.94 0.77, 43.75 0.04, 65.48 0 M65.48 0 C79.21 1.53, 84.38 7.88, 84.43 18.95 M65.48 0 C76.99 -1.06, 85.65 4.82, 84.43 18.95 M84.43 18.95 C83.28 32.83, 86.54 44.79, 84.43 56.85 M84.43 18.95 C84.31 28.86, 83.47 40.14, 84.43 56.85 M84.43 56.85 C86.21 67.55, 78.5 76.53, 65.48 75.8 M84.43 56.85 C83.76 69.44, 78.25 76.63, 65.48 75.8 M65.48 75.8 C52.04 75.85, 35.58 77.45, 18.95 75.8 M65.48 75.8 C51.83 76.94, 40.01 77.03, 18.95 75.8 M18.95 75.8 C7.66 76.7, 0.41 69.22, 0 56.85 M18.95 75.8 C7.8 76.56, -1.76 67.51, 0 56.85 M0 56.85 C-0.18 46.39, 0.01 38.15, 0 18.95 M0 56.85 C0.6 44.55, 1.28 32.82, 0 18.95 M0 18.95 C1.58 6.82, 8.21 0.86, 18.95 0 M0 18.95 C0.95 7.51, 7.28 -1.68, 18.95 0" stroke="#000000" stroke-width="1" fill="none"></path></g><g stroke-linecap="round" transform="translate(230.95291052231573 815.6910600602754) rotate(0 42.21645761313681 37.90002319909706)"><path d="M18.95 0 M18.95 0 C34.76 0.21, 53.11 -0.9, 65.48 0 M18.95 0 C30.94 0.77, 43.75 0.04, 65.48 0 M65.48 0 C79.21 1.53, 84.38 7.88, 84.43 18.95 M65.48 0 C76.99 -1.06, 85.65 4.82, 84.43 18.95 M84.43 18.95 C83.28 32.83, 86.54 44.79, 84.43 56.85 M84.43 18.95 C84.31 28.86, 83.47 40.14, 84.43 56.85 M84.43 56.85 C86.21 67.55, 78.5 76.53, 65.48 75.8 M84.43 56.85 C83.76 69.44, 78.25 76.63, 65.48 75.8 M65.48 75.8 C52.04 75.85, 35.58 77.45, 18.95 75.8 M65.48 75.8 C51.83 76.94, 40.01 77.03, 18.95 75.8 M18.95 75.8 C7.66 76.7, 0.41 69.22, 0 56.85 M18.95 75.8 C7.8 76.56, -1.76 67.51, 0 56.85 M0 56.85 C-0.18 46.39, 0.01 38.15, 0 18.95 M0 56.85 C0.6 44.55, 1.28 32.82, 0 18.95 M0 18.95 C1.58 6.82, 8.21 0.86, 18.95 0 M0 18.95 C0.95 7.51, 7.28 -1.68, 18.95 0" stroke="#000000" stroke-width="1" fill="none"></path></g><g stroke-linecap="round" transform="translate(322.04264448726576 816.5308813482715) rotate(0 42.21645761313681 37.90002319909706)"><path d="M18.95 0 M18.95 0 C34.76 0.21, 53.11 -0.9, 65.48 0 M18.95 0 C30.94 0.77, 43.75 0.04, 65.48 0 M65.48 0 C79.21 1.53, 84.38 7.88, 84.43 18.95 M65.48 0 C76.99 -1.06, 85.65 4.82, 84.43 18.95 M84.43 18.95 C83.28 32.83, 86.54 44.79, 84.43 56.85 M84.43 18.95 C84.31 28.86, 83.47 40.14, 84.43 56.85 M84.43 56.85 C86.21 67.55, 78.5 76.53, 65.48 75.8 M84.43 56.85 C83.76 69.44, 78.25 76.63, 65.48 75.8 M65.48 75.8 C52.04 75.85, 35.58 77.45, 18.95 75.8 M65.48 75.8 C51.83 76.94, 40.01 77.03, 18.95 75.8 M18.95 75.8 C7.66 76.7, 0.41 69.22, 0 56.85 M18.95 75.8 C7.8 76.56, -1.76 67.51, 0 56.85 M0 56.85 C-0.18 46.39, 0.01 38.15, 0 18.95 M0 56.85 C0.6 44.55, 1.28 32.82, 0 18.95 M0 18.95 C1.58 6.82, 8.21 0.86, 18.95 0 M0 18.95 C0.95 7.51, 7.28 -1.68, 18.95 0" stroke="#000000" stroke-width="1" fill="none"></path></g><g stroke-linecap="round" transform="translate(418.2515832150755 816.1912477391555) rotate(0 42.21645761313681 37.90002319909706)"><path d="M18.95 0 M18.95 0 C34.76 0.21, 53.11 -0.9, 65.48 0 M18.95 0 C30.94 0.77, 43.75 0.04, 65.48 0 M65.48 0 C79.21 1.53, 84.38 7.88, 84.43 18.95 M65.48 0 C76.99 -1.06, 85.65 4.82, 84.43 18.95 M84.43 18.95 C83.28 32.83, 86.54 44.79, 84.43 56.85 M84.43 18.95 C84.31 28.86, 83.47 40.14, 84.43 56.85 M84.43 56.85 C86.21 67.55, 78.5 76.53, 65.48 75.8 M84.43 56.85 C83.76 69.44, 78.25 76.63, 65.48 75.8 M65.48 75.8 C52.04 75.85, 35.58 77.45, 18.95 75.8 M65.48 75.8 C51.83 76.94, 40.01 77.03, 18.95 75.8 M18.95 75.8 C7.66 76.7, 0.41 69.22, 0 56.85 M18.95 75.8 C7.8 76.56, -1.76 67.51, 0 56.85 M0 56.85 C-0.18 46.39, 0.01 38.15, 0 18.95 M0 56.85 C0.6 44.55, 1.28 32.82, 0 18.95 M0 18.95 C1.58 6.82, 8.21 0.86, 18.95 0 M0 18.95 C0.95 7.51, 7.28 -1.68, 18.95 0" stroke="#000000" stroke-width="1" fill="none"></path></g><g stroke-linecap="round" transform="translate(511.9040071397203 815.3576016076885) rotate(0 42.21645761313681 37.90002319909706)"><path d="M18.95 0 M18.95 0 C34.76 0.21, 53.11 -0.9, 65.48 0 M18.95 0 C30.94 0.77, 43.75 0.04, 65.48 0 M65.48 0 C79.21 1.53, 84.38 7.88, 84.43 18.95 M65.48 0 C76.99 -1.06, 85.65 4.82, 84.43 18.95 M84.43 18.95 C83.28 32.83, 86.54 44.79, 84.43 56.85 M84.43 18.95 C84.31 28.86, 83.47 40.14, 84.43 56.85 M84.43 56.85 C86.21 67.55, 78.5 76.53, 65.48 75.8 M84.43 56.85 C83.76 69.44, 78.25 76.63, 65.48 75.8 M65.48 75.8 C52.04 75.85, 35.58 77.45, 18.95 75.8 M65.48 75.8 C51.83 76.94, 40.01 77.03, 18.95 75.8 M18.95 75.8 C7.66 76.7, 0.41 69.22, 0 56.85 M18.95 75.8 C7.8 76.56, -1.76 67.51, 0 56.85 M0 56.85 C-0.18 46.39, 0.01 38.15, 0 18.95 M0 56.85 C0.6 44.55, 1.28 32.82, 0 18.95 M0 18.95 C1.58 6.82, 8.21 0.86, 18.95 0 M0 18.95 C0.95 7.51, 7.28 -1.68, 18.95 0" stroke="#000000" stroke-width="1" fill="none"></path></g><g stroke-linecap="round" transform="translate(604.5004792978402 813.4680037096973) rotate(0 42.21645761313681 37.90002319909712)"><path d="M18.95 0 M18.95 0 C34.76 0.21, 53.11 -0.9, 65.48 0 M18.95 0 C30.94 0.77, 43.75 0.04, 65.48 0 M65.48 0 C79.21 1.53, 84.38 7.88, 84.43 18.95 M65.48 0 C76.99 -1.06, 85.65 4.82, 84.43 18.95 M84.43 18.95 C83.28 32.83, 86.54 44.79, 84.43 56.85 M84.43 18.95 C84.31 28.86, 83.47 40.14, 84.43 56.85 M84.43 56.85 C86.21 67.55, 78.5 76.53, 65.48 75.8 M84.43 56.85 C83.76 69.44, 78.25 76.63, 65.48 75.8 M65.48 75.8 C52.04 75.85, 35.58 77.45, 18.95 75.8 M65.48 75.8 C51.83 76.94, 40.01 77.03, 18.95 75.8 M18.95 75.8 C7.66 76.7, 0.41 69.22, 0 56.85 M18.95 75.8 C7.8 76.56, -1.76 67.51, 0 56.85 M0 56.85 C-0.18 46.39, 0.01 38.15, 0 18.95 M0 56.85 C0.6 44.55, 1.28 32.82, 0 18.95 M0 18.95 C1.58 6.82, 8.21 0.86, 18.95 0 M0 18.95 C0.95 7.51, 7.28 -1.68, 18.95 0" stroke="#000000" stroke-width="1" fill="none"></path></g><g stroke-linecap="round" transform="translate(132.98058924760636 730.2485067414476) rotate(0 42.21645761313681 37.90002319909706)"><path d="M18.95 0 M18.95 0 C34.76 0.21, 53.11 -0.9, 65.48 0 M18.95 0 C30.94 0.77, 43.75 0.04, 65.48 0 M65.48 0 C79.21 1.53, 84.38 7.88, 84.43 18.95 M65.48 0 C76.99 -1.06, 85.65 4.82, 84.43 18.95 M84.43 18.95 C83.28 32.83, 86.54 44.79, 84.43 56.85 M84.43 18.95 C84.31 28.86, 83.47 40.14, 84.43 56.85 M84.43 56.85 C86.21 67.55, 78.5 76.53, 65.48 75.8 M84.43 56.85 C83.76 69.44, 78.25 76.63, 65.48 75.8 M65.48 75.8 C52.04 75.85, 35.58 77.45, 18.95 75.8 M65.48 75.8 C51.83 76.94, 40.01 77.03, 18.95 75.8 M18.95 75.8 C7.66 76.7, 0.41 69.22, 0 56.85 M18.95 75.8 C7.8 76.56, -1.76 67.51, 0 56.85 M0 56.85 C-0.18 46.39, 0.01 38.15, 0 18.95 M0 56.85 C0.6 44.55, 1.28 32.82, 0 18.95 M0 18.95 C1.58 6.82, 8.21 0.86, 18.95 0 M0 18.95 C0.95 7.51, 7.28 -1.68, 18.95 0" stroke="#000000" stroke-width="1" fill="none"></path></g><g stroke-linecap="round" transform="translate(226.75380408233434 730.9493870075327) rotate(0 42.21645761313681 37.90002319909706)"><path d="M18.95 0 M18.95 0 C34.76 0.21, 53.11 -0.9, 65.48 0 M18.95 0 C30.94 0.77, 43.75 0.04, 65.48 0 M65.48 0 C79.21 1.53, 84.38 7.88, 84.43 18.95 M65.48 0 C76.99 -1.06, 85.65 4.82, 84.43 18.95 M84.43 18.95 C83.28 32.83, 86.54 44.79, 84.43 56.85 M84.43 18.95 C84.31 28.86, 83.47 40.14, 84.43 56.85 M84.43 56.85 C86.21 67.55, 78.5 76.53, 65.48 75.8 M84.43 56.85 C83.76 69.44, 78.25 76.63, 65.48 75.8 M65.48 75.8 C52.04 75.85, 35.58 77.45, 18.95 75.8 M65.48 75.8 C51.83 76.94, 40.01 77.03, 18.95 75.8 M18.95 75.8 C7.66 76.7, 0.41 69.22, 0 56.85 M18.95 75.8 C7.8 76.56, -1.76 67.51, 0 56.85 M0 56.85 C-0.18 46.39, 0.01 38.15, 0 18.95 M0 56.85 C0.6 44.55, 1.28 32.82, 0 18.95 M0 18.95 C1.58 6.82, 8.21 0.86, 18.95 0 M0 18.95 C0.95 7.51, 7.28 -1.68, 18.95 0" stroke="#000000" stroke-width="1" fill="none"></path></g><g stroke-linecap="round" transform="translate(317.84353804728437 731.789208295529) rotate(0 42.21645761313681 37.90002319909706)"><path d="M18.95 0 M18.95 0 C34.76 0.21, 53.11 -0.9, 65.48 0 M18.95 0 C30.94 0.77, 43.75 0.04, 65.48 0 M65.48 0 C79.21 1.53, 84.38 7.88, 84.43 18.95 M65.48 0 C76.99 -1.06, 85.65 4.82, 84.43 18.95 M84.43 18.95 C83.28 32.83, 86.54 44.79, 84.43 56.85 M84.43 18.95 C84.31 28.86, 83.47 40.14, 84.43 56.85 M84.43 56.85 C86.21 67.55, 78.5 76.53, 65.48 75.8 M84.43 56.85 C83.76 69.44, 78.25 76.63, 65.48 75.8 M65.48 75.8 C52.04 75.85, 35.58 77.45, 18.95 75.8 M65.48 75.8 C51.83 76.94, 40.01 77.03, 18.95 75.8 M18.95 75.8 C7.66 76.7, 0.41 69.22, 0 56.85 M18.95 75.8 C7.8 76.56, -1.76 67.51, 0 56.85 M0 56.85 C-0.18 46.39, 0.01 38.15, 0 18.95 M0 56.85 C0.6 44.55, 1.28 32.82, 0 18.95 M0 18.95 C1.58 6.82, 8.21 0.86, 18.95 0 M0 18.95 C0.95 7.51, 7.28 -1.68, 18.95 0" stroke="#000000" stroke-width="1" fill="none"></path></g><g stroke-linecap="round" transform="translate(414.0524767750942 731.4495746864128) rotate(0 42.21645761313681 37.90002319909706)"><path d="M18.95 0 M18.95 0 C34.76 0.21, 53.11 -0.9, 65.48 0 M18.95 0 C30.94 0.77, 43.75 0.04, 65.48 0 M65.48 0 C79.21 1.53, 84.38 7.88, 84.43 18.95 M65.48 0 C76.99 -1.06, 85.65 4.82, 84.43 18.95 M84.43 18.95 C83.28 32.83, 86.54 44.79, 84.43 56.85 M84.43 18.95 C84.31 28.86, 83.47 40.14, 84.43 56.85 M84.43 56.85 C86.21 67.55, 78.5 76.53, 65.48 75.8 M84.43 56.85 C83.76 69.44, 78.25 76.63, 65.48 75.8 M65.48 75.8 C52.04 75.85, 35.58 77.45, 18.95 75.8 M65.48 75.8 C51.83 76.94, 40.01 77.03, 18.95 75.8 M18.95 75.8 C7.66 76.7, 0.41 69.22, 0 56.85 M18.95 75.8 C7.8 76.56, -1.76 67.51, 0 56.85 M0 56.85 C-0.18 46.39, 0.01 38.15, 0 18.95 M0 56.85 C0.6 44.55, 1.28 32.82, 0 18.95 M0 18.95 C1.58 6.82, 8.21 0.86, 18.95 0 M0 18.95 C0.95 7.51, 7.28 -1.68, 18.95 0" stroke="#000000" stroke-width="1" fill="none"></path></g><g stroke-linecap="round" transform="translate(507.7049006997388 730.6159285549458) rotate(0 42.21645761313681 37.90002319909706)"><path d="M18.95 0 M18.95 0 C34.76 0.21, 53.11 -0.9, 65.48 0 M18.95 0 C30.94 0.77, 43.75 0.04, 65.48 0 M65.48 0 C79.21 1.53, 84.38 7.88, 84.43 18.95 M65.48 0 C76.99 -1.06, 85.65 4.82, 84.43 18.95 M84.43 18.95 C83.28 32.83, 86.54 44.79, 84.43 56.85 M84.43 18.95 C84.31 28.86, 83.47 40.14, 84.43 56.85 M84.43 56.85 C86.21 67.55, 78.5 76.53, 65.48 75.8 M84.43 56.85 C83.76 69.44, 78.25 76.63, 65.48 75.8 M65.48 75.8 C52.04 75.85, 35.58 77.45, 18.95 75.8 M65.48 75.8 C51.83 76.94, 40.01 77.03, 18.95 75.8 M18.95 75.8 C7.66 76.7, 0.41 69.22, 0 56.85 M18.95 75.8 C7.8 76.56, -1.76 67.51, 0 56.85 M0 56.85 C-0.18 46.39, 0.01 38.15, 0 18.95 M0 56.85 C0.6 44.55, 1.28 32.82, 0 18.95 M0 18.95 C1.58 6.82, 8.21 0.86, 18.95 0 M0 18.95 C0.95 7.51, 7.28 -1.68, 18.95 0" stroke="#000000" stroke-width="1" fill="none"></path></g><g stroke-linecap="round" transform="translate(600.3013728578587 728.7263306569542) rotate(0 42.21645761313681 37.90002319909706)"><path d="M18.95 0 M18.95 0 C34.76 0.21, 53.11 -0.9, 65.48 0 M18.95 0 C30.94 0.77, 43.75 0.04, 65.48 0 M65.48 0 C79.21 1.53, 84.38 7.88, 84.43 18.95 M65.48 0 C76.99 -1.06, 85.65 4.82, 84.43 18.95 M84.43 18.95 C83.28 32.83, 86.54 44.79, 84.43 56.85 M84.43 18.95 C84.31 28.86, 83.47 40.14, 84.43 56.85 M84.43 56.85 C86.21 67.55, 78.5 76.53, 65.48 75.8 M84.43 56.85 C83.76 69.44, 78.25 76.63, 65.48 75.8 M65.48 75.8 C52.04 75.85, 35.58 77.45, 18.95 75.8 M65.48 75.8 C51.83 76.94, 40.01 77.03, 18.95 75.8 M18.95 75.8 C7.66 76.7, 0.41 69.22, 0 56.85 M18.95 75.8 C7.8 76.56, -1.76 67.51, 0 56.85 M0 56.85 C-0.18 46.39, 0.01 38.15, 0 18.95 M0 56.85 C0.6 44.55, 1.28 32.82, 0 18.95 M0 18.95 C1.58 6.82, 8.21 0.86, 18.95 0 M0 18.95 C0.95 7.51, 7.28 -1.68, 18.95 0" stroke="#000000" stroke-width="1" fill="none"></path></g><g stroke-linecap="round" transform="translate(132.63478048196072 641.0915967701948) rotate(0 42.21645761313681 37.90002319909706)"><path d="M18.95 0 M18.95 0 C34.76 0.21, 53.11 -0.9, 65.48 0 M18.95 0 C30.94 0.77, 43.75 0.04, 65.48 0 M65.48 0 C79.21 1.53, 84.38 7.88, 84.43 18.95 M65.48 0 C76.99 -1.06, 85.65 4.82, 84.43 18.95 M84.43 18.95 C83.28 32.83, 86.54 44.79, 84.43 56.85 M84.43 18.95 C84.31 28.86, 83.47 40.14, 84.43 56.85 M84.43 56.85 C86.21 67.55, 78.5 76.53, 65.48 75.8 M84.43 56.85 C83.76 69.44, 78.25 76.63, 65.48 75.8 M65.48 75.8 C52.04 75.85, 35.58 77.45, 18.95 75.8 M65.48 75.8 C51.83 76.94, 40.01 77.03, 18.95 75.8 M18.95 75.8 C7.66 76.7, 0.41 69.22, 0 56.85 M18.95 75.8 C7.8 76.56, -1.76 67.51, 0 56.85 M0 56.85 C-0.18 46.39, 0.01 38.15, 0 18.95 M0 56.85 C0.6 44.55, 1.28 32.82, 0 18.95 M0 18.95 C1.58 6.82, 8.21 0.86, 18.95 0 M0 18.95 C0.95 7.51, 7.28 -1.68, 18.95 0" stroke="#000000" stroke-width="1" fill="none"></path></g><g stroke-linecap="round" transform="translate(226.4079953166887 641.79247703628) rotate(0 42.21645761313681 37.90002319909706)"><path d="M18.95 0 M18.95 0 C34.76 0.21, 53.11 -0.9, 65.48 0 M18.95 0 C30.94 0.77, 43.75 0.04, 65.48 0 M65.48 0 C79.21 1.53, 84.38 7.88, 84.43 18.95 M65.48 0 C76.99 -1.06, 85.65 4.82, 84.43 18.95 M84.43 18.95 C83.28 32.83, 86.54 44.79, 84.43 56.85 M84.43 18.95 C84.31 28.86, 83.47 40.14, 84.43 56.85 M84.43 56.85 C86.21 67.55, 78.5 76.53, 65.48 75.8 M84.43 56.85 C83.76 69.44, 78.25 76.63, 65.48 75.8 M65.48 75.8 C52.04 75.85, 35.58 77.45, 18.95 75.8 M65.48 75.8 C51.83 76.94, 40.01 77.03, 18.95 75.8 M18.95 75.8 C7.66 76.7, 0.41 69.22, 0 56.85 M18.95 75.8 C7.8 76.56, -1.76 67.51, 0 56.85 M0 56.85 C-0.18 46.39, 0.01 38.15, 0 18.95 M0 56.85 C0.6 44.55, 1.28 32.82, 0 18.95 M0 18.95 C1.58 6.82, 8.21 0.86, 18.95 0 M0 18.95 C0.95 7.51, 7.28 -1.68, 18.95 0" stroke="#000000" stroke-width="1" fill="none"></path></g><g stroke-linecap="round" transform="translate(317.4977292816387 642.6322983242761) rotate(0 42.21645761313681 37.90002319909706)"><path d="M18.95 0 M18.95 0 C34.76 0.21, 53.11 -0.9, 65.48 0 M18.95 0 C30.94 0.77, 43.75 0.04, 65.48 0 M65.48 0 C79.21 1.53, 84.38 7.88, 84.43 18.95 M65.48 0 C76.99 -1.06, 85.65 4.82, 84.43 18.95 M84.43 18.95 C83.28 32.83, 86.54 44.79, 84.43 56.85 M84.43 18.95 C84.31 28.86, 83.47 40.14, 84.43 56.85 M84.43 56.85 C86.21 67.55, 78.5 76.53, 65.48 75.8 M84.43 56.85 C83.76 69.44, 78.25 76.63, 65.48 75.8 M65.48 75.8 C52.04 75.85, 35.58 77.45, 18.95 75.8 M65.48 75.8 C51.83 76.94, 40.01 77.03, 18.95 75.8 M18.95 75.8 C7.66 76.7, 0.41 69.22, 0 56.85 M18.95 75.8 C7.8 76.56, -1.76 67.51, 0 56.85 M0 56.85 C-0.18 46.39, 0.01 38.15, 0 18.95 M0 56.85 C0.6 44.55, 1.28 32.82, 0 18.95 M0 18.95 C1.58 6.82, 8.21 0.86, 18.95 0 M0 18.95 C0.95 7.51, 7.28 -1.68, 18.95 0" stroke="#000000" stroke-width="1" fill="none"></path></g><g stroke-linecap="round" transform="translate(413.70666800944844 642.2926647151602) rotate(0 42.21645761313681 37.90002319909706)"><path d="M18.95 0 M18.95 0 C34.76 0.21, 53.11 -0.9, 65.48 0 M18.95 0 C30.94 0.77, 43.75 0.04, 65.48 0 M65.48 0 C79.21 1.53, 84.38 7.88, 84.43 18.95 M65.48 0 C76.99 -1.06, 85.65 4.82, 84.43 18.95 M84.43 18.95 C83.28 32.83, 86.54 44.79, 84.43 56.85 M84.43 18.95 C84.31 28.86, 83.47 40.14, 84.43 56.85 M84.43 56.85 C86.21 67.55, 78.5 76.53, 65.48 75.8 M84.43 56.85 C83.76 69.44, 78.25 76.63, 65.48 75.8 M65.48 75.8 C52.04 75.85, 35.58 77.45, 18.95 75.8 M65.48 75.8 C51.83 76.94, 40.01 77.03, 18.95 75.8 M18.95 75.8 C7.66 76.7, 0.41 69.22, 0 56.85 M18.95 75.8 C7.8 76.56, -1.76 67.51, 0 56.85 M0 56.85 C-0.18 46.39, 0.01 38.15, 0 18.95 M0 56.85 C0.6 44.55, 1.28 32.82, 0 18.95 M0 18.95 C1.58 6.82, 8.21 0.86, 18.95 0 M0 18.95 C0.95 7.51, 7.28 -1.68, 18.95 0" stroke="#000000" stroke-width="1" fill="none"></path></g><g stroke-linecap="round" transform="translate(507.35909193409327 641.4590185836931) rotate(0 42.21645761313681 37.90002319909706)"><path d="M18.95 0 M18.95 0 C34.76 0.21, 53.11 -0.9, 65.48 0 M18.95 0 C30.94 0.77, 43.75 0.04, 65.48 0 M65.48 0 C79.21 1.53, 84.38 7.88, 84.43 18.95 M65.48 0 C76.99 -1.06, 85.65 4.82, 84.43 18.95 M84.43 18.95 C83.28 32.83, 86.54 44.79, 84.43 56.85 M84.43 18.95 C84.31 28.86, 83.47 40.14, 84.43 56.85 M84.43 56.85 C86.21 67.55, 78.5 76.53, 65.48 75.8 M84.43 56.85 C83.76 69.44, 78.25 76.63, 65.48 75.8 M65.48 75.8 C52.04 75.85, 35.58 77.45, 18.95 75.8 M65.48 75.8 C51.83 76.94, 40.01 77.03, 18.95 75.8 M18.95 75.8 C7.66 76.7, 0.41 69.22, 0 56.85 M18.95 75.8 C7.8 76.56, -1.76 67.51, 0 56.85 M0 56.85 C-0.18 46.39, 0.01 38.15, 0 18.95 M0 56.85 C0.6 44.55, 1.28 32.82, 0 18.95 M0 18.95 C1.58 6.82, 8.21 0.86, 18.95 0 M0 18.95 C0.95 7.51, 7.28 -1.68, 18.95 0" stroke="#000000" stroke-width="1" fill="none"></path></g><g stroke-linecap="round" transform="translate(599.9555640922132 639.5694206857016) rotate(0 42.21645761313681 37.90002319909706)"><path d="M18.95 0 M18.95 0 C34.76 0.21, 53.11 -0.9, 65.48 0 M18.95 0 C30.94 0.77, 43.75 0.04, 65.48 0 M65.48 0 C79.21 1.53, 84.38 7.88, 84.43 18.95 M65.48 0 C76.99 -1.06, 85.65 4.82, 84.43 18.95 M84.43 18.95 C83.28 32.83, 86.54 44.79, 84.43 56.85 M84.43 18.95 C84.31 28.86, 83.47 40.14, 84.43 56.85 M84.43 56.85 C86.21 67.55, 78.5 76.53, 65.48 75.8 M84.43 56.85 C83.76 69.44, 78.25 76.63, 65.48 75.8 M65.48 75.8 C52.04 75.85, 35.58 77.45, 18.95 75.8 M65.48 75.8 C51.83 76.94, 40.01 77.03, 18.95 75.8 M18.95 75.8 C7.66 76.7, 0.41 69.22, 0 56.85 M18.95 75.8 C7.8 76.56, -1.76 67.51, 0 56.85 M0 56.85 C-0.18 46.39, 0.01 38.15, 0 18.95 M0 56.85 C0.6 44.55, 1.28 32.82, 0 18.95 M0 18.95 C1.58 6.82, 8.21 0.86, 18.95 0 M0 18.95 C0.95 7.51, 7.28 -1.68, 18.95 0" stroke="#000000" stroke-width="1" fill="none"></path></g><g stroke-linecap="round" transform="translate(128.05281433715749 552.7189316781738) rotate(0 42.21645761313681 37.90002319909706)"><path d="M18.95 0 M18.95 0 C34.76 0.21, 53.11 -0.9, 65.48 0 M18.95 0 C30.94 0.77, 43.75 0.04, 65.48 0 M65.48 0 C79.21 1.53, 84.38 7.88, 84.43 18.95 M65.48 0 C76.99 -1.06, 85.65 4.82, 84.43 18.95 M84.43 18.95 C83.28 32.83, 86.54 44.79, 84.43 56.85 M84.43 18.95 C84.31 28.86, 83.47 40.14, 84.43 56.85 M84.43 56.85 C86.21 67.55, 78.5 76.53, 65.48 75.8 M84.43 56.85 C83.76 69.44, 78.25 76.63, 65.48 75.8 M65.48 75.8 C52.04 75.85, 35.58 77.45, 18.95 75.8 M65.48 75.8 C51.83 76.94, 40.01 77.03, 18.95 75.8 M18.95 75.8 C7.66 76.7, 0.41 69.22, 0 56.85 M18.95 75.8 C7.8 76.56, -1.76 67.51, 0 56.85 M0 56.85 C-0.18 46.39, 0.01 38.15, 0 18.95 M0 56.85 C0.6 44.55, 1.28 32.82, 0 18.95 M0 18.95 C1.58 6.82, 8.21 0.86, 18.95 0 M0 18.95 C0.95 7.51, 7.28 -1.68, 18.95 0" stroke="#000000" stroke-width="1" fill="none"></path></g><g stroke-linecap="round" transform="translate(221.82602917188547 553.419811944259) rotate(0 42.21645761313681 37.90002319909712)"><path d="M18.95 0 M18.95 0 C34.76 0.21, 53.11 -0.9, 65.48 0 M18.95 0 C30.94 0.77, 43.75 0.04, 65.48 0 M65.48 0 C79.21 1.53, 84.38 7.88, 84.43 18.95 M65.48 0 C76.99 -1.06, 85.65 4.82, 84.43 18.95 M84.43 18.95 C83.28 32.83, 86.54 44.79, 84.43 56.85 M84.43 18.95 C84.31 28.86, 83.47 40.14, 84.43 56.85 M84.43 56.85 C86.21 67.55, 78.5 76.53, 65.48 75.8 M84.43 56.85 C83.76 69.44, 78.25 76.63, 65.48 75.8 M65.48 75.8 C52.04 75.85, 35.58 77.45, 18.95 75.8 M65.48 75.8 C51.83 76.94, 40.01 77.03, 18.95 75.8 M18.95 75.8 C7.66 76.7, 0.41 69.22, 0 56.85 M18.95 75.8 C7.8 76.56, -1.76 67.51, 0 56.85 M0 56.85 C-0.18 46.39, 0.01 38.15, 0 18.95 M0 56.85 C0.6 44.55, 1.28 32.82, 0 18.95 M0 18.95 C1.58 6.82, 8.21 0.86, 18.95 0 M0 18.95 C0.95 7.51, 7.28 -1.68, 18.95 0" stroke="#000000" stroke-width="1" fill="none"></path></g><g stroke-linecap="round" transform="translate(312.9157631368355 554.2596332322553) rotate(0 42.21645761313681 37.90002319909712)"><path d="M18.95 0 M18.95 0 C34.76 0.21, 53.11 -0.9, 65.48 0 M18.95 0 C30.94 0.77, 43.75 0.04, 65.48 0 M65.48 0 C79.21 1.53, 84.38 7.88, 84.43 18.95 M65.48 0 C76.99 -1.06, 85.65 4.82, 84.43 18.95 M84.43 18.95 C83.28 32.83, 86.54 44.79, 84.43 56.85 M84.43 18.95 C84.31 28.86, 83.47 40.14, 84.43 56.85 M84.43 56.85 C86.21 67.55, 78.5 76.53, 65.48 75.8 M84.43 56.85 C83.76 69.44, 78.25 76.63, 65.48 75.8 M65.48 75.8 C52.04 75.85, 35.58 77.45, 18.95 75.8 M65.48 75.8 C51.83 76.94, 40.01 77.03, 18.95 75.8 M18.95 75.8 C7.66 76.7, 0.41 69.22, 0 56.85 M18.95 75.8 C7.8 76.56, -1.76 67.51, 0 56.85 M0 56.85 C-0.18 46.39, 0.01 38.15, 0 18.95 M0 56.85 C0.6 44.55, 1.28 32.82, 0 18.95 M0 18.95 C1.58 6.82, 8.21 0.86, 18.95 0 M0 18.95 C0.95 7.51, 7.28 -1.68, 18.95 0" stroke="#000000" stroke-width="1" fill="none"></path></g><g stroke-linecap="round" transform="translate(409.1247018646453 553.9199996231392) rotate(0 42.21645761313681 37.90002319909706)"><path d="M18.95 0 M18.95 0 C34.76 0.21, 53.11 -0.9, 65.48 0 M18.95 0 C30.94 0.77, 43.75 0.04, 65.48 0 M65.48 0 C79.21 1.53, 84.38 7.88, 84.43 18.95 M65.48 0 C76.99 -1.06, 85.65 4.82, 84.43 18.95 M84.43 18.95 C83.28 32.83, 86.54 44.79, 84.43 56.85 M84.43 18.95 C84.31 28.86, 83.47 40.14, 84.43 56.85 M84.43 56.85 C86.21 67.55, 78.5 76.53, 65.48 75.8 M84.43 56.85 C83.76 69.44, 78.25 76.63, 65.48 75.8 M65.48 75.8 C52.04 75.85, 35.58 77.45, 18.95 75.8 M65.48 75.8 C51.83 76.94, 40.01 77.03, 18.95 75.8 M18.95 75.8 C7.66 76.7, 0.41 69.22, 0 56.85 M18.95 75.8 C7.8 76.56, -1.76 67.51, 0 56.85 M0 56.85 C-0.18 46.39, 0.01 38.15, 0 18.95 M0 56.85 C0.6 44.55, 1.28 32.82, 0 18.95 M0 18.95 C1.58 6.82, 8.21 0.86, 18.95 0 M0 18.95 C0.95 7.51, 7.28 -1.68, 18.95 0" stroke="#000000" stroke-width="1" fill="none"></path></g><g stroke-linecap="round" transform="translate(502.7771257892899 553.0863534916722) rotate(0 42.21645761313681 37.90002319909706)"><path d="M18.95 0 M18.95 0 C34.76 0.21, 53.11 -0.9, 65.48 0 M18.95 0 C30.94 0.77, 43.75 0.04, 65.48 0 M65.48 0 C79.21 1.53, 84.38 7.88, 84.43 18.95 M65.48 0 C76.99 -1.06, 85.65 4.82, 84.43 18.95 M84.43 18.95 C83.28 32.83, 86.54 44.79, 84.43 56.85 M84.43 18.95 C84.31 28.86, 83.47 40.14, 84.43 56.85 M84.43 56.85 C86.21 67.55, 78.5 76.53, 65.48 75.8 M84.43 56.85 C83.76 69.44, 78.25 76.63, 65.48 75.8 M65.48 75.8 C52.04 75.85, 35.58 77.45, 18.95 75.8 M65.48 75.8 C51.83 76.94, 40.01 77.03, 18.95 75.8 M18.95 75.8 C7.66 76.7, 0.41 69.22, 0 56.85 M18.95 75.8 C7.8 76.56, -1.76 67.51, 0 56.85 M0 56.85 C-0.18 46.39, 0.01 38.15, 0 18.95 M0 56.85 C0.6 44.55, 1.28 32.82, 0 18.95 M0 18.95 C1.58 6.82, 8.21 0.86, 18.95 0 M0 18.95 C0.95 7.51, 7.28 -1.68, 18.95 0" stroke="#000000" stroke-width="1" fill="none"></path></g><g stroke-linecap="round" transform="translate(595.3735979474098 551.1967555936807) rotate(0 42.21645761313681 37.90002319909706)"><path d="M18.95 0 M18.95 0 C34.76 0.21, 53.11 -0.9, 65.48 0 M18.95 0 C30.94 0.77, 43.75 0.04, 65.48 0 M65.48 0 C79.21 1.53, 84.38 7.88, 84.43 18.95 M65.48 0 C76.99 -1.06, 85.65 4.82, 84.43 18.95 M84.43 18.95 C83.28 32.83, 86.54 44.79, 84.43 56.85 M84.43 18.95 C84.31 28.86, 83.47 40.14, 84.43 56.85 M84.43 56.85 C86.21 67.55, 78.5 76.53, 65.48 75.8 M84.43 56.85 C83.76 69.44, 78.25 76.63, 65.48 75.8 M65.48 75.8 C52.04 75.85, 35.58 77.45, 18.95 75.8 M65.48 75.8 C51.83 76.94, 40.01 77.03, 18.95 75.8 M18.95 75.8 C7.66 76.7, 0.41 69.22, 0 56.85 M18.95 75.8 C7.8 76.56, -1.76 67.51, 0 56.85 M0 56.85 C-0.18 46.39, 0.01 38.15, 0 18.95 M0 56.85 C0.6 44.55, 1.28 32.82, 0 18.95 M0 18.95 C1.58 6.82, 8.21 0.86, 18.95 0 M0 18.95 C0.95 7.51, 7.28 -1.68, 18.95 0" stroke="#000000" stroke-width="1" fill="none"></path></g><g stroke-linecap="round" transform="translate(127.55880181480671 467.63144985978533) rotate(0 42.21645761313681 37.90002319909712)"><path d="M18.95 0 M18.95 0 C34.76 0.21, 53.11 -0.9, 65.48 0 M18.95 0 C30.94 0.77, 43.75 0.04, 65.48 0 M65.48 0 C79.21 1.53, 84.38 7.88, 84.43 18.95 M65.48 0 C76.99 -1.06, 85.65 4.82, 84.43 18.95 M84.43 18.95 C83.28 32.83, 86.54 44.79, 84.43 56.85 M84.43 18.95 C84.31 28.86, 83.47 40.14, 84.43 56.85 M84.43 56.85 C86.21 67.55, 78.5 76.53, 65.48 75.8 M84.43 56.85 C83.76 69.44, 78.25 76.63, 65.48 75.8 M65.48 75.8 C52.04 75.85, 35.58 77.45, 18.95 75.8 M65.48 75.8 C51.83 76.94, 40.01 77.03, 18.95 75.8 M18.95 75.8 C7.66 76.7, 0.41 69.22, 0 56.85 M18.95 75.8 C7.8 76.56, -1.76 67.51, 0 56.85 M0 56.85 C-0.18 46.39, 0.01 38.15, 0 18.95 M0 56.85 C0.6 44.55, 1.28 32.82, 0 18.95 M0 18.95 C1.58 6.82, 8.21 0.86, 18.95 0 M0 18.95 C0.95 7.51, 7.28 -1.68, 18.95 0" stroke="#000000" stroke-width="1" fill="none"></path></g><g stroke-linecap="round" transform="translate(221.3320166495347 468.3323301258705) rotate(0 42.21645761313681 37.90002319909706)"><path d="M18.95 0 M18.95 0 C34.76 0.21, 53.11 -0.9, 65.48 0 M18.95 0 C30.94 0.77, 43.75 0.04, 65.48 0 M65.48 0 C79.21 1.53, 84.38 7.88, 84.43 18.95 M65.48 0 C76.99 -1.06, 85.65 4.82, 84.43 18.95 M84.43 18.95 C83.28 32.83, 86.54 44.79, 84.43 56.85 M84.43 18.95 C84.31 28.86, 83.47 40.14, 84.43 56.85 M84.43 56.85 C86.21 67.55, 78.5 76.53, 65.48 75.8 M84.43 56.85 C83.76 69.44, 78.25 76.63, 65.48 75.8 M65.48 75.8 C52.04 75.85, 35.58 77.45, 18.95 75.8 M65.48 75.8 C51.83 76.94, 40.01 77.03, 18.95 75.8 M18.95 75.8 C7.66 76.7, 0.41 69.22, 0 56.85 M18.95 75.8 C7.8 76.56, -1.76 67.51, 0 56.85 M0 56.85 C-0.18 46.39, 0.01 38.15, 0 18.95 M0 56.85 C0.6 44.55, 1.28 32.82, 0 18.95 M0 18.95 C1.58 6.82, 8.21 0.86, 18.95 0 M0 18.95 C0.95 7.51, 7.28 -1.68, 18.95 0" stroke="#000000" stroke-width="1" fill="none"></path></g><g stroke-linecap="round" transform="translate(312.4217506144847 469.1721514138668) rotate(0 42.21645761313681 37.90002319909706)"><path d="M18.95 0 M18.95 0 C34.76 0.21, 53.11 -0.9, 65.48 0 M18.95 0 C30.94 0.77, 43.75 0.04, 65.48 0 M65.48 0 C79.21 1.53, 84.38 7.88, 84.43 18.95 M65.48 0 C76.99 -1.06, 85.65 4.82, 84.43 18.95 M84.43 18.95 C83.28 32.83, 86.54 44.79, 84.43 56.85 M84.43 18.95 C84.31 28.86, 83.47 40.14, 84.43 56.85 M84.43 56.85 C86.21 67.55, 78.5 76.53, 65.48 75.8 M84.43 56.85 C83.76 69.44, 78.25 76.63, 65.48 75.8 M65.48 75.8 C52.04 75.85, 35.58 77.45, 18.95 75.8 M65.48 75.8 C51.83 76.94, 40.01 77.03, 18.95 75.8 M18.95 75.8 C7.66 76.7, 0.41 69.22, 0 56.85 M18.95 75.8 C7.8 76.56, -1.76 67.51, 0 56.85 M0 56.85 C-0.18 46.39, 0.01 38.15, 0 18.95 M0 56.85 C0.6 44.55, 1.28 32.82, 0 18.95 M0 18.95 C1.58 6.82, 8.21 0.86, 18.95 0 M0 18.95 C0.95 7.51, 7.28 -1.68, 18.95 0" stroke="#000000" stroke-width="1" fill="none"></path></g><g stroke-linecap="round" transform="translate(408.63068934229454 468.83251780475075) rotate(0 42.21645761313681 37.90002319909712)"><path d="M18.95 0 M18.95 0 C34.76 0.21, 53.11 -0.9, 65.48 0 M18.95 0 C30.94 0.77, 43.75 0.04, 65.48 0 M65.48 0 C79.21 1.53, 84.38 7.88, 84.43 18.95 M65.48 0 C76.99 -1.06, 85.65 4.82, 84.43 18.95 M84.43 18.95 C83.28 32.83, 86.54 44.79, 84.43 56.85 M84.43 18.95 C84.31 28.86, 83.47 40.14, 84.43 56.85 M84.43 56.85 C86.21 67.55, 78.5 76.53, 65.48 75.8 M84.43 56.85 C83.76 69.44, 78.25 76.63, 65.48 75.8 M65.48 75.8 C52.04 75.85, 35.58 77.45, 18.95 75.8 M65.48 75.8 C51.83 76.94, 40.01 77.03, 18.95 75.8 M18.95 75.8 C7.66 76.7, 0.41 69.22, 0 56.85 M18.95 75.8 C7.8 76.56, -1.76 67.51, 0 56.85 M0 56.85 C-0.18 46.39, 0.01 38.15, 0 18.95 M0 56.85 C0.6 44.55, 1.28 32.82, 0 18.95 M0 18.95 C1.58 6.82, 8.21 0.86, 18.95 0 M0 18.95 C0.95 7.51, 7.28 -1.68, 18.95 0" stroke="#000000" stroke-width="1" fill="none"></path></g><g stroke-linecap="round" transform="translate(502.28311326693915 467.9988716732837) rotate(0 42.21645761313681 37.90002319909712)"><path d="M18.95 0 M18.95 0 C34.76 0.21, 53.11 -0.9, 65.48 0 M18.95 0 C30.94 0.77, 43.75 0.04, 65.48 0 M65.48 0 C79.21 1.53, 84.38 7.88, 84.43 18.95 M65.48 0 C76.99 -1.06, 85.65 4.82, 84.43 18.95 M84.43 18.95 C83.28 32.83, 86.54 44.79, 84.43 56.85 M84.43 18.95 C84.31 28.86, 83.47 40.14, 84.43 56.85 M84.43 56.85 C86.21 67.55, 78.5 76.53, 65.48 75.8 M84.43 56.85 C83.76 69.44, 78.25 76.63, 65.48 75.8 M65.48 75.8 C52.04 75.85, 35.58 77.45, 18.95 75.8 M65.48 75.8 C51.83 76.94, 40.01 77.03, 18.95 75.8 M18.95 75.8 C7.66 76.7, 0.41 69.22, 0 56.85 M18.95 75.8 C7.8 76.56, -1.76 67.51, 0 56.85 M0 56.85 C-0.18 46.39, 0.01 38.15, 0 18.95 M0 56.85 C0.6 44.55, 1.28 32.82, 0 18.95 M0 18.95 C1.58 6.82, 8.21 0.86, 18.95 0 M0 18.95 C0.95 7.51, 7.28 -1.68, 18.95 0" stroke="#000000" stroke-width="1" fill="none"></path></g><g stroke-linecap="round" transform="translate(594.8795854250591 466.1092737752922) rotate(0 42.21645761313681 37.90002319909712)"><path d="M18.95 0 M18.95 0 C34.76 0.21, 53.11 -0.9, 65.48 0 M18.95 0 C30.94 0.77, 43.75 0.04, 65.48 0 M65.48 0 C79.21 1.53, 84.38 7.88, 84.43 18.95 M65.48 0 C76.99 -1.06, 85.65 4.82, 84.43 18.95 M84.43 18.95 C83.28 32.83, 86.54 44.79, 84.43 56.85 M84.43 18.95 C84.31 28.86, 83.47 40.14, 84.43 56.85 M84.43 56.85 C86.21 67.55, 78.5 76.53, 65.48 75.8 M84.43 56.85 C83.76 69.44, 78.25 76.63, 65.48 75.8 M65.48 75.8 C52.04 75.85, 35.58 77.45, 18.95 75.8 M65.48 75.8 C51.83 76.94, 40.01 77.03, 18.95 75.8 M18.95 75.8 C7.66 76.7, 0.41 69.22, 0 56.85 M18.95 75.8 C7.8 76.56, -1.76 67.51, 0 56.85 M0 56.85 C-0.18 46.39, 0.01 38.15, 0 18.95 M0 56.85 C0.6 44.55, 1.28 32.82, 0 18.95 M0 18.95 C1.58 6.82, 8.21 0.86, 18.95 0 M0 18.95 C0.95 7.51, 7.28 -1.68, 18.95 0" stroke="#000000" stroke-width="1" fill="none"></path></g><g stroke-linecap="round" transform="translate(124.36624588911496 381.6423951881068) rotate(0 42.21645761313681 37.90002319909712)"><path d="M18.95 0 M18.95 0 C34.76 0.21, 53.11 -0.9, 65.48 0 M18.95 0 C30.94 0.77, 43.75 0.04, 65.48 0 M65.48 0 C79.21 1.53, 84.38 7.88, 84.43 18.95 M65.48 0 C76.99 -1.06, 85.65 4.82, 84.43 18.95 M84.43 18.95 C83.28 32.83, 86.54 44.79, 84.43 56.85 M84.43 18.95 C84.31 28.86, 83.47 40.14, 84.43 56.85 M84.43 56.85 C86.21 67.55, 78.5 76.53, 65.48 75.8 M84.43 56.85 C83.76 69.44, 78.25 76.63, 65.48 75.8 M65.48 75.8 C52.04 75.85, 35.58 77.45, 18.95 75.8 M65.48 75.8 C51.83 76.94, 40.01 77.03, 18.95 75.8 M18.95 75.8 C7.66 76.7, 0.41 69.22, 0 56.85 M18.95 75.8 C7.8 76.56, -1.76 67.51, 0 56.85 M0 56.85 C-0.18 46.39, 0.01 38.15, 0 18.95 M0 56.85 C0.6 44.55, 1.28 32.82, 0 18.95 M0 18.95 C1.58 6.82, 8.21 0.86, 18.95 0 M0 18.95 C0.95 7.51, 7.28 -1.68, 18.95 0" stroke="#000000" stroke-width="1" fill="none"></path></g><g stroke-linecap="round" transform="translate(218.13946072384294 382.34327545419205) rotate(0 42.21645761313681 37.90002319909712)"><path d="M18.95 0 M18.95 0 C34.76 0.21, 53.11 -0.9, 65.48 0 M18.95 0 C30.94 0.77, 43.75 0.04, 65.48 0 M65.48 0 C79.21 1.53, 84.38 7.88, 84.43 18.95 M65.48 0 C76.99 -1.06, 85.65 4.82, 84.43 18.95 M84.43 18.95 C83.28 32.83, 86.54 44.79, 84.43 56.85 M84.43 18.95 C84.31 28.86, 83.47 40.14, 84.43 56.85 M84.43 56.85 C86.21 67.55, 78.5 76.53, 65.48 75.8 M84.43 56.85 C83.76 69.44, 78.25 76.63, 65.48 75.8 M65.48 75.8 C52.04 75.85, 35.58 77.45, 18.95 75.8 M65.48 75.8 C51.83 76.94, 40.01 77.03, 18.95 75.8 M18.95 75.8 C7.66 76.7, 0.41 69.22, 0 56.85 M18.95 75.8 C7.8 76.56, -1.76 67.51, 0 56.85 M0 56.85 C-0.18 46.39, 0.01 38.15, 0 18.95 M0 56.85 C0.6 44.55, 1.28 32.82, 0 18.95 M0 18.95 C1.58 6.82, 8.21 0.86, 18.95 0 M0 18.95 C0.95 7.51, 7.28 -1.68, 18.95 0" stroke="#000000" stroke-width="1" fill="none"></path></g><g stroke-linecap="round" transform="translate(309.229194688793 383.18309674218824) rotate(0 42.21645761313681 37.90002319909706)"><path d="M18.95 0 M18.95 0 C34.76 0.21, 53.11 -0.9, 65.48 0 M18.95 0 C30.94 0.77, 43.75 0.04, 65.48 0 M65.48 0 C79.21 1.53, 84.38 7.88, 84.43 18.95 M65.48 0 C76.99 -1.06, 85.65 4.82, 84.43 18.95 M84.43 18.95 C83.28 32.83, 86.54 44.79, 84.43 56.85 M84.43 18.95 C84.31 28.86, 83.47 40.14, 84.43 56.85 M84.43 56.85 C86.21 67.55, 78.5 76.53, 65.48 75.8 M84.43 56.85 C83.76 69.44, 78.25 76.63, 65.48 75.8 M65.48 75.8 C52.04 75.85, 35.58 77.45, 18.95 75.8 M65.48 75.8 C51.83 76.94, 40.01 77.03, 18.95 75.8 M18.95 75.8 C7.66 76.7, 0.41 69.22, 0 56.85 M18.95 75.8 C7.8 76.56, -1.76 67.51, 0 56.85 M0 56.85 C-0.18 46.39, 0.01 38.15, 0 18.95 M0 56.85 C0.6 44.55, 1.28 32.82, 0 18.95 M0 18.95 C1.58 6.82, 8.21 0.86, 18.95 0 M0 18.95 C0.95 7.51, 7.28 -1.68, 18.95 0" stroke="#000000" stroke-width="1" fill="none"></path></g><g stroke-linecap="round" transform="translate(405.4381334166027 382.8434631330722) rotate(0 42.21645761313681 37.90002319909712)"><path d="M18.95 0 M18.95 0 C34.76 0.21, 53.11 -0.9, 65.48 0 M18.95 0 C30.94 0.77, 43.75 0.04, 65.48 0 M65.48 0 C79.21 1.53, 84.38 7.88, 84.43 18.95 M65.48 0 C76.99 -1.06, 85.65 4.82, 84.43 18.95 M84.43 18.95 C83.28 32.83, 86.54 44.79, 84.43 56.85 M84.43 18.95 C84.31 28.86, 83.47 40.14, 84.43 56.85 M84.43 56.85 C86.21 67.55, 78.5 76.53, 65.48 75.8 M84.43 56.85 C83.76 69.44, 78.25 76.63, 65.48 75.8 M65.48 75.8 C52.04 75.85, 35.58 77.45, 18.95 75.8 M65.48 75.8 C51.83 76.94, 40.01 77.03, 18.95 75.8 M18.95 75.8 C7.66 76.7, 0.41 69.22, 0 56.85 M18.95 75.8 C7.8 76.56, -1.76 67.51, 0 56.85 M0 56.85 C-0.18 46.39, 0.01 38.15, 0 18.95 M0 56.85 C0.6 44.55, 1.28 32.82, 0 18.95 M0 18.95 C1.58 6.82, 8.21 0.86, 18.95 0 M0 18.95 C0.95 7.51, 7.28 -1.68, 18.95 0" stroke="#000000" stroke-width="1" fill="none"></path></g><g stroke-linecap="round" transform="translate(499.0905573412475 382.00981700160514) rotate(0 42.21645761313681 37.90002319909712)"><path d="M18.95 0 M18.95 0 C34.76 0.21, 53.11 -0.9, 65.48 0 M18.95 0 C30.94 0.77, 43.75 0.04, 65.48 0 M65.48 0 C79.21 1.53, 84.38 7.88, 84.43 18.95 M65.48 0 C76.99 -1.06, 85.65 4.82, 84.43 18.95 M84.43 18.95 C83.28 32.83, 86.54 44.79, 84.43 56.85 M84.43 18.95 C84.31 28.86, 83.47 40.14, 84.43 56.85 M84.43 56.85 C86.21 67.55, 78.5 76.53, 65.48 75.8 M84.43 56.85 C83.76 69.44, 78.25 76.63, 65.48 75.8 M65.48 75.8 C52.04 75.85, 35.58 77.45, 18.95 75.8 M65.48 75.8 C51.83 76.94, 40.01 77.03, 18.95 75.8 M18.95 75.8 C7.66 76.7, 0.41 69.22, 0 56.85 M18.95 75.8 C7.8 76.56, -1.76 67.51, 0 56.85 M0 56.85 C-0.18 46.39, 0.01 38.15, 0 18.95 M0 56.85 C0.6 44.55, 1.28 32.82, 0 18.95 M0 18.95 C1.58 6.82, 8.21 0.86, 18.95 0 M0 18.95 C0.95 7.51, 7.28 -1.68, 18.95 0" stroke="#000000" stroke-width="1" fill="none"></path></g><g stroke-linecap="round" transform="translate(591.6870294993674 380.12021910361364) rotate(0 42.21645761313681 37.90002319909712)"><path d="M18.95 0 M18.95 0 C34.76 0.21, 53.11 -0.9, 65.48 0 M18.95 0 C30.94 0.77, 43.75 0.04, 65.48 0 M65.48 0 C79.21 1.53, 84.38 7.88, 84.43 18.95 M65.48 0 C76.99 -1.06, 85.65 4.82, 84.43 18.95 M84.43 18.95 C83.28 32.83, 86.54 44.79, 84.43 56.85 M84.43 18.95 C84.31 28.86, 83.47 40.14, 84.43 56.85 M84.43 56.85 C86.21 67.55, 78.5 76.53, 65.48 75.8 M84.43 56.85 C83.76 69.44, 78.25 76.63, 65.48 75.8 M65.48 75.8 C52.04 75.85, 35.58 77.45, 18.95 75.8 M65.48 75.8 C51.83 76.94, 40.01 77.03, 18.95 75.8 M18.95 75.8 C7.66 76.7, 0.41 69.22, 0 56.85 M18.95 75.8 C7.8 76.56, -1.76 67.51, 0 56.85 M0 56.85 C-0.18 46.39, 0.01 38.15, 0 18.95 M0 56.85 C0.6 44.55, 1.28 32.82, 0 18.95 M0 18.95 C1.58 6.82, 8.21 0.86, 18.95 0 M0 18.95 C0.95 7.51, 7.28 -1.68, 18.95 0" stroke="#000000" stroke-width="1" fill="none"></path></g><g stroke-linecap="round" transform="translate(126.27436925669468 295.51131191625245) rotate(0 42.21645761313681 37.90002319909709)"><path d="M18.95 0 M18.95 0 C34.76 0.21, 53.11 -0.9, 65.48 0 M18.95 0 C30.94 0.77, 43.75 0.04, 65.48 0 M65.48 0 C79.21 1.53, 84.38 7.88, 84.43 18.95 M65.48 0 C76.99 -1.06, 85.65 4.82, 84.43 18.95 M84.43 18.95 C83.28 32.83, 86.54 44.79, 84.43 56.85 M84.43 18.95 C84.31 28.86, 83.47 40.14, 84.43 56.85 M84.43 56.85 C86.21 67.55, 78.5 76.53, 65.48 75.8 M84.43 56.85 C83.76 69.44, 78.25 76.63, 65.48 75.8 M65.48 75.8 C52.04 75.85, 35.58 77.45, 18.95 75.8 M65.48 75.8 C51.83 76.94, 40.01 77.03, 18.95 75.8 M18.95 75.8 C7.66 76.7, 0.41 69.22, 0 56.85 M18.95 75.8 C7.8 76.56, -1.76 67.51, 0 56.85 M0 56.85 C-0.18 46.39, 0.01 38.15, 0 18.95 M0 56.85 C0.6 44.55, 1.28 32.82, 0 18.95 M0 18.95 C1.58 6.82, 8.21 0.86, 18.95 0 M0 18.95 C0.95 7.51, 7.28 -1.68, 18.95 0" stroke="#000000" stroke-width="1" fill="none"></path></g><g stroke-linecap="round" transform="translate(220.04758409142266 296.21219218233773) rotate(0 42.21645761313681 37.90002319909709)"><path d="M18.95 0 M18.95 0 C34.76 0.21, 53.11 -0.9, 65.48 0 M18.95 0 C30.94 0.77, 43.75 0.04, 65.48 0 M65.48 0 C79.21 1.53, 84.38 7.88, 84.43 18.95 M65.48 0 C76.99 -1.06, 85.65 4.82, 84.43 18.95 M84.43 18.95 C83.28 32.83, 86.54 44.79, 84.43 56.85 M84.43 18.95 C84.31 28.86, 83.47 40.14, 84.43 56.85 M84.43 56.85 C86.21 67.55, 78.5 76.53, 65.48 75.8 M84.43 56.85 C83.76 69.44, 78.25 76.63, 65.48 75.8 M65.48 75.8 C52.04 75.85, 35.58 77.45, 18.95 75.8 M65.48 75.8 C51.83 76.94, 40.01 77.03, 18.95 75.8 M18.95 75.8 C7.66 76.7, 0.41 69.22, 0 56.85 M18.95 75.8 C7.8 76.56, -1.76 67.51, 0 56.85 M0 56.85 C-0.18 46.39, 0.01 38.15, 0 18.95 M0 56.85 C0.6 44.55, 1.28 32.82, 0 18.95 M0 18.95 C1.58 6.82, 8.21 0.86, 18.95 0 M0 18.95 C0.95 7.51, 7.28 -1.68, 18.95 0" stroke="#000000" stroke-width="1" fill="none"></path></g><g stroke-linecap="round" transform="translate(311.1373180563727 297.0520134703339) rotate(0 42.21645761313681 37.90002319909709)"><path d="M18.95 0 M18.95 0 C34.76 0.21, 53.11 -0.9, 65.48 0 M18.95 0 C30.94 0.77, 43.75 0.04, 65.48 0 M65.48 0 C79.21 1.53, 84.38 7.88, 84.43 18.95 M65.48 0 C76.99 -1.06, 85.65 4.82, 84.43 18.95 M84.43 18.95 C83.28 32.83, 86.54 44.79, 84.43 56.85 M84.43 18.95 C84.31 28.86, 83.47 40.14, 84.43 56.85 M84.43 56.85 C86.21 67.55, 78.5 76.53, 65.48 75.8 M84.43 56.85 C83.76 69.44, 78.25 76.63, 65.48 75.8 M65.48 75.8 C52.04 75.85, 35.58 77.45, 18.95 75.8 M65.48 75.8 C51.83 76.94, 40.01 77.03, 18.95 75.8 M18.95 75.8 C7.66 76.7, 0.41 69.22, 0 56.85 M18.95 75.8 C7.8 76.56, -1.76 67.51, 0 56.85 M0 56.85 C-0.18 46.39, 0.01 38.15, 0 18.95 M0 56.85 C0.6 44.55, 1.28 32.82, 0 18.95 M0 18.95 C1.58 6.82, 8.21 0.86, 18.95 0 M0 18.95 C0.95 7.51, 7.28 -1.68, 18.95 0" stroke="#000000" stroke-width="1" fill="none"></path></g><g stroke-linecap="round" transform="translate(407.3462567841825 296.71237986121787) rotate(0 42.21645761313681 37.90002319909709)"><path d="M18.95 0 M18.95 0 C34.76 0.21, 53.11 -0.9, 65.48 0 M18.95 0 C30.94 0.77, 43.75 0.04, 65.48 0 M65.48 0 C79.21 1.53, 84.38 7.88, 84.43 18.95 M65.48 0 C76.99 -1.06, 85.65 4.82, 84.43 18.95 M84.43 18.95 C83.28 32.83, 86.54 44.79, 84.43 56.85 M84.43 18.95 C84.31 28.86, 83.47 40.14, 84.43 56.85 M84.43 56.85 C86.21 67.55, 78.5 76.53, 65.48 75.8 M84.43 56.85 C83.76 69.44, 78.25 76.63, 65.48 75.8 M65.48 75.8 C52.04 75.85, 35.58 77.45, 18.95 75.8 M65.48 75.8 C51.83 76.94, 40.01 77.03, 18.95 75.8 M18.95 75.8 C7.66 76.7, 0.41 69.22, 0 56.85 M18.95 75.8 C7.8 76.56, -1.76 67.51, 0 56.85 M0 56.85 C-0.18 46.39, 0.01 38.15, 0 18.95 M0 56.85 C0.6 44.55, 1.28 32.82, 0 18.95 M0 18.95 C1.58 6.82, 8.21 0.86, 18.95 0 M0 18.95 C0.95 7.51, 7.28 -1.68, 18.95 0" stroke="#000000" stroke-width="1" fill="none"></path></g><g stroke-linecap="round" transform="translate(500.9986807088271 295.8787337297508) rotate(0 42.21645761313681 37.90002319909709)"><path d="M18.95 0 M18.95 0 C34.76 0.21, 53.11 -0.9, 65.48 0 M18.95 0 C30.94 0.77, 43.75 0.04, 65.48 0 M65.48 0 C79.21 1.53, 84.38 7.88, 84.43 18.95 M65.48 0 C76.99 -1.06, 85.65 4.82, 84.43 18.95 M84.43 18.95 C83.28 32.83, 86.54 44.79, 84.43 56.85 M84.43 18.95 C84.31 28.86, 83.47 40.14, 84.43 56.85 M84.43 56.85 C86.21 67.55, 78.5 76.53, 65.48 75.8 M84.43 56.85 C83.76 69.44, 78.25 76.63, 65.48 75.8 M65.48 75.8 C52.04 75.85, 35.58 77.45, 18.95 75.8 M65.48 75.8 C51.83 76.94, 40.01 77.03, 18.95 75.8 M18.95 75.8 C7.66 76.7, 0.41 69.22, 0 56.85 M18.95 75.8 C7.8 76.56, -1.76 67.51, 0 56.85 M0 56.85 C-0.18 46.39, 0.01 38.15, 0 18.95 M0 56.85 C0.6 44.55, 1.28 32.82, 0 18.95 M0 18.95 C1.58 6.82, 8.21 0.86, 18.95 0 M0 18.95 C0.95 7.51, 7.28 -1.68, 18.95 0" stroke="#000000" stroke-width="1" fill="none"></path></g><g stroke-linecap="round" transform="translate(593.595152866947 293.9891358317593) rotate(0 42.21645761313681 37.90002319909709)"><path d="M18.95 0 M18.95 0 C34.76 0.21, 53.11 -0.9, 65.48 0 M18.95 0 C30.94 0.77, 43.75 0.04, 65.48 0 M65.48 0 C79.21 1.53, 84.38 7.88, 84.43 18.95 M65.48 0 C76.99 -1.06, 85.65 4.82, 84.43 18.95 M84.43 18.95 C83.28 32.83, 86.54 44.79, 84.43 56.85 M84.43 18.95 C84.31 28.86, 83.47 40.14, 84.43 56.85 M84.43 56.85 C86.21 67.55, 78.5 76.53, 65.48 75.8 M84.43 56.85 C83.76 69.44, 78.25 76.63, 65.48 75.8 M65.48 75.8 C52.04 75.85, 35.58 77.45, 18.95 75.8 M65.48 75.8 C51.83 76.94, 40.01 77.03, 18.95 75.8 M18.95 75.8 C7.66 76.7, 0.41 69.22, 0 56.85 M18.95 75.8 C7.8 76.56, -1.76 67.51, 0 56.85 M0 56.85 C-0.18 46.39, 0.01 38.15, 0 18.95 M0 56.85 C0.6 44.55, 1.28 32.82, 0 18.95 M0 18.95 C1.58 6.82, 8.21 0.86, 18.95 0 M0 18.95 C0.95 7.51, 7.28 -1.68, 18.95 0" stroke="#000000" stroke-width="1" fill="none"></path></g><g stroke-linecap="round" transform="translate(127.25004398833761 207.11394619811395) rotate(0 42.21645761313681 37.90002319909709)"><path d="M18.95 0 M18.95 0 C34.76 0.21, 53.11 -0.9, 65.48 0 M18.95 0 C30.94 0.77, 43.75 0.04, 65.48 0 M65.48 0 C79.21 1.53, 84.38 7.88, 84.43 18.95 M65.48 0 C76.99 -1.06, 85.65 4.82, 84.43 18.95 M84.43 18.95 C83.28 32.83, 86.54 44.79, 84.43 56.85 M84.43 18.95 C84.31 28.86, 83.47 40.14, 84.43 56.85 M84.43 56.85 C86.21 67.55, 78.5 76.53, 65.48 75.8 M84.43 56.85 C83.76 69.44, 78.25 76.63, 65.48 75.8 M65.48 75.8 C52.04 75.85, 35.58 77.45, 18.95 75.8 M65.48 75.8 C51.83 76.94, 40.01 77.03, 18.95 75.8 M18.95 75.8 C7.66 76.7, 0.41 69.22, 0 56.85 M18.95 75.8 C7.8 76.56, -1.76 67.51, 0 56.85 M0 56.85 C-0.18 46.39, 0.01 38.15, 0 18.95 M0 56.85 C0.6 44.55, 1.28 32.82, 0 18.95 M0 18.95 C1.58 6.82, 8.21 0.86, 18.95 0 M0 18.95 C0.95 7.51, 7.28 -1.68, 18.95 0" stroke="#000000" stroke-width="1" fill="none"></path></g><g stroke-linecap="round" transform="translate(221.0232588230656 207.81482646419923) rotate(0 42.21645761313681 37.90002319909709)"><path d="M18.95 0 M18.95 0 C34.76 0.21, 53.11 -0.9, 65.48 0 M18.95 0 C30.94 0.77, 43.75 0.04, 65.48 0 M65.48 0 C79.21 1.53, 84.38 7.88, 84.43 18.95 M65.48 0 C76.99 -1.06, 85.65 4.82, 84.43 18.95 M84.43 18.95 C83.28 32.83, 86.54 44.79, 84.43 56.85 M84.43 18.95 C84.31 28.86, 83.47 40.14, 84.43 56.85 M84.43 56.85 C86.21 67.55, 78.5 76.53, 65.48 75.8 M84.43 56.85 C83.76 69.44, 78.25 76.63, 65.48 75.8 M65.48 75.8 C52.04 75.85, 35.58 77.45, 18.95 75.8 M65.48 75.8 C51.83 76.94, 40.01 77.03, 18.95 75.8 M18.95 75.8 C7.66 76.7, 0.41 69.22, 0 56.85 M18.95 75.8 C7.8 76.56, -1.76 67.51, 0 56.85 M0 56.85 C-0.18 46.39, 0.01 38.15, 0 18.95 M0 56.85 C0.6 44.55, 1.28 32.82, 0 18.95 M0 18.95 C1.58 6.82, 8.21 0.86, 18.95 0 M0 18.95 C0.95 7.51, 7.28 -1.68, 18.95 0" stroke="#000000" stroke-width="1" fill="none"></path></g><g stroke-linecap="round" transform="translate(312.1129927880156 208.65464775219542) rotate(0 42.21645761313681 37.90002319909709)"><path d="M18.95 0 M18.95 0 C34.76 0.21, 53.11 -0.9, 65.48 0 M18.95 0 C30.94 0.77, 43.75 0.04, 65.48 0 M65.48 0 C79.21 1.53, 84.38 7.88, 84.43 18.95 M65.48 0 C76.99 -1.06, 85.65 4.82, 84.43 18.95 M84.43 18.95 C83.28 32.83, 86.54 44.79, 84.43 56.85 M84.43 18.95 C84.31 28.86, 83.47 40.14, 84.43 56.85 M84.43 56.85 C86.21 67.55, 78.5 76.53, 65.48 75.8 M84.43 56.85 C83.76 69.44, 78.25 76.63, 65.48 75.8 M65.48 75.8 C52.04 75.85, 35.58 77.45, 18.95 75.8 M65.48 75.8 C51.83 76.94, 40.01 77.03, 18.95 75.8 M18.95 75.8 C7.66 76.7, 0.41 69.22, 0 56.85 M18.95 75.8 C7.8 76.56, -1.76 67.51, 0 56.85 M0 56.85 C-0.18 46.39, 0.01 38.15, 0 18.95 M0 56.85 C0.6 44.55, 1.28 32.82, 0 18.95 M0 18.95 C1.58 6.82, 8.21 0.86, 18.95 0 M0 18.95 C0.95 7.51, 7.28 -1.68, 18.95 0" stroke="#000000" stroke-width="1" fill="none"></path></g><g stroke-linecap="round" transform="translate(408.3219315158253 208.31501414307937) rotate(0 42.21645761313681 37.90002319909709)"><path d="M18.95 0 M18.95 0 C34.76 0.21, 53.11 -0.9, 65.48 0 M18.95 0 C30.94 0.77, 43.75 0.04, 65.48 0 M65.48 0 C79.21 1.53, 84.38 7.88, 84.43 18.95 M65.48 0 C76.99 -1.06, 85.65 4.82, 84.43 18.95 M84.43 18.95 C83.28 32.83, 86.54 44.79, 84.43 56.85 M84.43 18.95 C84.31 28.86, 83.47 40.14, 84.43 56.85 M84.43 56.85 C86.21 67.55, 78.5 76.53, 65.48 75.8 M84.43 56.85 C83.76 69.44, 78.25 76.63, 65.48 75.8 M65.48 75.8 C52.04 75.85, 35.58 77.45, 18.95 75.8 M65.48 75.8 C51.83 76.94, 40.01 77.03, 18.95 75.8 M18.95 75.8 C7.66 76.7, 0.41 69.22, 0 56.85 M18.95 75.8 C7.8 76.56, -1.76 67.51, 0 56.85 M0 56.85 C-0.18 46.39, 0.01 38.15, 0 18.95 M0 56.85 C0.6 44.55, 1.28 32.82, 0 18.95 M0 18.95 C1.58 6.82, 8.21 0.86, 18.95 0 M0 18.95 C0.95 7.51, 7.28 -1.68, 18.95 0" stroke="#000000" stroke-width="1" fill="none"></path></g><g stroke-linecap="round" transform="translate(501.97435544047016 207.48136801161232) rotate(0 42.21645761313681 37.90002319909709)"><path d="M18.95 0 M18.95 0 C34.76 0.21, 53.11 -0.9, 65.48 0 M18.95 0 C30.94 0.77, 43.75 0.04, 65.48 0 M65.48 0 C79.21 1.53, 84.38 7.88, 84.43 18.95 M65.48 0 C76.99 -1.06, 85.65 4.82, 84.43 18.95 M84.43 18.95 C83.28 32.83, 86.54 44.79, 84.43 56.85 M84.43 18.95 C84.31 28.86, 83.47 40.14, 84.43 56.85 M84.43 56.85 C86.21 67.55, 78.5 76.53, 65.48 75.8 M84.43 56.85 C83.76 69.44, 78.25 76.63, 65.48 75.8 M65.48 75.8 C52.04 75.85, 35.58 77.45, 18.95 75.8 M65.48 75.8 C51.83 76.94, 40.01 77.03, 18.95 75.8 M18.95 75.8 C7.66 76.7, 0.41 69.22, 0 56.85 M18.95 75.8 C7.8 76.56, -1.76 67.51, 0 56.85 M0 56.85 C-0.18 46.39, 0.01 38.15, 0 18.95 M0 56.85 C0.6 44.55, 1.28 32.82, 0 18.95 M0 18.95 C1.58 6.82, 8.21 0.86, 18.95 0 M0 18.95 C0.95 7.51, 7.28 -1.68, 18.95 0" stroke="#000000" stroke-width="1" fill="none"></path></g><g stroke-linecap="round" transform="translate(594.5708275985901 205.5917701136208) rotate(0 42.21645761313681 37.90002319909709)"><path d="M18.95 0 M18.95 0 C34.76 0.21, 53.11 -0.9, 65.48 0 M18.95 0 C30.94 0.77, 43.75 0.04, 65.48 0 M65.48 0 C79.21 1.53, 84.38 7.88, 84.43 18.95 M65.48 0 C76.99 -1.06, 85.65 4.82, 84.43 18.95 M84.43 18.95 C83.28 32.83, 86.54 44.79, 84.43 56.85 M84.43 18.95 C84.31 28.86, 83.47 40.14, 84.43 56.85 M84.43 56.85 C86.21 67.55, 78.5 76.53, 65.48 75.8 M84.43 56.85 C83.76 69.44, 78.25 76.63, 65.48 75.8 M65.48 75.8 C52.04 75.85, 35.58 77.45, 18.95 75.8 M65.48 75.8 C51.83 76.94, 40.01 77.03, 18.95 75.8 M18.95 75.8 C7.66 76.7, 0.41 69.22, 0 56.85 M18.95 75.8 C7.8 76.56, -1.76 67.51, 0 56.85 M0 56.85 C-0.18 46.39, 0.01 38.15, 0 18.95 M0 56.85 C0.6 44.55, 1.28 32.82, 0 18.95 M0 18.95 C1.58 6.82, 8.21 0.86, 18.95 0 M0 18.95 C0.95 7.51, 7.28 -1.68, 18.95 0" stroke="#000000" stroke-width="1" fill="none"></path></g><g stroke-linecap="round" transform="translate(127.58350244092435 121.91531156219693) rotate(0 42.21645761313681 37.90002319909709)"><path d="M18.95 0 M18.95 0 C34.76 0.21, 53.11 -0.9, 65.48 0 M18.95 0 C30.94 0.77, 43.75 0.04, 65.48 0 M65.48 0 C79.21 1.53, 84.38 7.88, 84.43 18.95 M65.48 0 C76.99 -1.06, 85.65 4.82, 84.43 18.95 M84.43 18.95 C83.28 32.83, 86.54 44.79, 84.43 56.85 M84.43 18.95 C84.31 28.86, 83.47 40.14, 84.43 56.85 M84.43 56.85 C86.21 67.55, 78.5 76.53, 65.48 75.8 M84.43 56.85 C83.76 69.44, 78.25 76.63, 65.48 75.8 M65.48 75.8 C52.04 75.85, 35.58 77.45, 18.95 75.8 M65.48 75.8 C51.83 76.94, 40.01 77.03, 18.95 75.8 M18.95 75.8 C7.66 76.7, 0.41 69.22, 0 56.85 M18.95 75.8 C7.8 76.56, -1.76 67.51, 0 56.85 M0 56.85 C-0.18 46.39, 0.01 38.15, 0 18.95 M0 56.85 C0.6 44.55, 1.28 32.82, 0 18.95 M0 18.95 C1.58 6.82, 8.21 0.86, 18.95 0 M0 18.95 C0.95 7.51, 7.28 -1.68, 18.95 0" stroke="#000000" stroke-width="1" fill="none"></path></g><g stroke-linecap="round" transform="translate(221.35671727565233 122.61619182828198) rotate(0 42.21645761313681 37.90002319909709)"><path d="M18.95 0 M18.95 0 C34.76 0.21, 53.11 -0.9, 65.48 0 M18.95 0 C30.94 0.77, 43.75 0.04, 65.48 0 M65.48 0 C79.21 1.53, 84.38 7.88, 84.43 18.95 M65.48 0 C76.99 -1.06, 85.65 4.82, 84.43 18.95 M84.43 18.95 C83.28 32.83, 86.54 44.79, 84.43 56.85 M84.43 18.95 C84.31 28.86, 83.47 40.14, 84.43 56.85 M84.43 56.85 C86.21 67.55, 78.5 76.53, 65.48 75.8 M84.43 56.85 C83.76 69.44, 78.25 76.63, 65.48 75.8 M65.48 75.8 C52.04 75.85, 35.58 77.45, 18.95 75.8 M65.48 75.8 C51.83 76.94, 40.01 77.03, 18.95 75.8 M18.95 75.8 C7.66 76.7, 0.41 69.22, 0 56.85 M18.95 75.8 C7.8 76.56, -1.76 67.51, 0 56.85 M0 56.85 C-0.18 46.39, 0.01 38.15, 0 18.95 M0 56.85 C0.6 44.55, 1.28 32.82, 0 18.95 M0 18.95 C1.58 6.82, 8.21 0.86, 18.95 0 M0 18.95 C0.95 7.51, 7.28 -1.68, 18.95 0" stroke="#000000" stroke-width="1" fill="none"></path></g><g stroke-linecap="round" transform="translate(312.44645124060236 123.45601311627829) rotate(0 42.21645761313681 37.90002319909709)"><path d="M18.95 0 M18.95 0 C34.76 0.21, 53.11 -0.9, 65.48 0 M18.95 0 C30.94 0.77, 43.75 0.04, 65.48 0 M65.48 0 C79.21 1.53, 84.38 7.88, 84.43 18.95 M65.48 0 C76.99 -1.06, 85.65 4.82, 84.43 18.95 M84.43 18.95 C83.28 32.83, 86.54 44.79, 84.43 56.85 M84.43 18.95 C84.31 28.86, 83.47 40.14, 84.43 56.85 M84.43 56.85 C86.21 67.55, 78.5 76.53, 65.48 75.8 M84.43 56.85 C83.76 69.44, 78.25 76.63, 65.48 75.8 M65.48 75.8 C52.04 75.85, 35.58 77.45, 18.95 75.8 M65.48 75.8 C51.83 76.94, 40.01 77.03, 18.95 75.8 M18.95 75.8 C7.66 76.7, 0.41 69.22, 0 56.85 M18.95 75.8 C7.8 76.56, -1.76 67.51, 0 56.85 M0 56.85 C-0.18 46.39, 0.01 38.15, 0 18.95 M0 56.85 C0.6 44.55, 1.28 32.82, 0 18.95 M0 18.95 C1.58 6.82, 8.21 0.86, 18.95 0 M0 18.95 C0.95 7.51, 7.28 -1.68, 18.95 0" stroke="#000000" stroke-width="1" fill="none"></path></g><g stroke-linecap="round" transform="translate(408.6553899684122 123.11637950716212) rotate(0 42.21645761313681 37.90002319909709)"><path d="M18.95 0 M18.95 0 C34.76 0.21, 53.11 -0.9, 65.48 0 M18.95 0 C30.94 0.77, 43.75 0.04, 65.48 0 M65.48 0 C79.21 1.53, 84.38 7.88, 84.43 18.95 M65.48 0 C76.99 -1.06, 85.65 4.82, 84.43 18.95 M84.43 18.95 C83.28 32.83, 86.54 44.79, 84.43 56.85 M84.43 18.95 C84.31 28.86, 83.47 40.14, 84.43 56.85 M84.43 56.85 C86.21 67.55, 78.5 76.53, 65.48 75.8 M84.43 56.85 C83.76 69.44, 78.25 76.63, 65.48 75.8 M65.48 75.8 C52.04 75.85, 35.58 77.45, 18.95 75.8 M65.48 75.8 C51.83 76.94, 40.01 77.03, 18.95 75.8 M18.95 75.8 C7.66 76.7, 0.41 69.22, 0 56.85 M18.95 75.8 C7.8 76.56, -1.76 67.51, 0 56.85 M0 56.85 C-0.18 46.39, 0.01 38.15, 0 18.95 M0 56.85 C0.6 44.55, 1.28 32.82, 0 18.95 M0 18.95 C1.58 6.82, 8.21 0.86, 18.95 0 M0 18.95 C0.95 7.51, 7.28 -1.68, 18.95 0" stroke="#000000" stroke-width="1" fill="none"></path></g><g stroke-linecap="round" transform="translate(502.3078138930568 122.28273337569507) rotate(0 42.21645761313684 37.90002319909709)"><path d="M18.95 0 M18.95 0 C34.76 0.21, 53.11 -0.9, 65.48 0 M18.95 0 C30.94 0.77, 43.75 0.04, 65.48 0 M65.48 0 C79.21 1.53, 84.38 7.88, 84.43 18.95 M65.48 0 C76.99 -1.06, 85.65 4.82, 84.43 18.95 M84.43 18.95 C83.28 32.83, 86.54 44.79, 84.43 56.85 M84.43 18.95 C84.31 28.86, 83.47 40.14, 84.43 56.85 M84.43 56.85 C86.21 67.55, 78.5 76.53, 65.48 75.8 M84.43 56.85 C83.76 69.44, 78.25 76.63, 65.48 75.8 M65.48 75.8 C52.04 75.85, 35.58 77.45, 18.95 75.8 M65.48 75.8 C51.83 76.94, 40.01 77.03, 18.95 75.8 M18.95 75.8 C7.66 76.7, 0.41 69.22, 0 56.85 M18.95 75.8 C7.8 76.56, -1.76 67.51, 0 56.85 M0 56.85 C-0.18 46.39, 0.01 38.15, 0 18.95 M0 56.85 C0.6 44.55, 1.28 32.82, 0 18.95 M0 18.95 C1.58 6.82, 8.21 0.86, 18.95 0 M0 18.95 C0.95 7.51, 7.28 -1.68, 18.95 0" stroke="#000000" stroke-width="1" fill="none"></path></g><g stroke-linecap="round" transform="translate(594.9042860511768 120.39313547770357) rotate(0 42.21645761313681 37.90002319909709)"><path d="M18.95 0 M18.95 0 C34.76 0.21, 53.11 -0.9, 65.48 0 M18.95 0 C30.94 0.77, 43.75 0.04, 65.48 0 M65.48 0 C79.21 1.53, 84.38 7.88, 84.43 18.95 M65.48 0 C76.99 -1.06, 85.65 4.82, 84.43 18.95 M84.43 18.95 C83.28 32.83, 86.54 44.79, 84.43 56.85 M84.43 18.95 C84.31 28.86, 83.47 40.14, 84.43 56.85 M84.43 56.85 C86.21 67.55, 78.5 76.53, 65.48 75.8 M84.43 56.85 C83.76 69.44, 78.25 76.63, 65.48 75.8 M65.48 75.8 C52.04 75.85, 35.58 77.45, 18.95 75.8 M65.48 75.8 C51.83 76.94, 40.01 77.03, 18.95 75.8 M18.95 75.8 C7.66 76.7, 0.41 69.22, 0 56.85 M18.95 75.8 C7.8 76.56, -1.76 67.51, 0 56.85 M0 56.85 C-0.18 46.39, 0.01 38.15, 0 18.95 M0 56.85 C0.6 44.55, 1.28 32.82, 0 18.95 M0 18.95 C1.58 6.82, 8.21 0.86, 18.95 0 M0 18.95 C0.95 7.51, 7.28 -1.68, 18.95 0" stroke="#000000" stroke-width="1" fill="none"></path></g><g stroke-linecap="round" transform="translate(128.86793499903638 34.907356063169885) rotate(0 42.21645761313681 37.90002319909709)"><path d="M18.95 0 M18.95 0 C34.76 0.21, 53.11 -0.9, 65.48 0 M18.95 0 C30.94 0.77, 43.75 0.04, 65.48 0 M65.48 0 C79.21 1.53, 84.38 7.88, 84.43 18.95 M65.48 0 C76.99 -1.06, 85.65 4.82, 84.43 18.95 M84.43 18.95 C83.28 32.83, 86.54 44.79, 84.43 56.85 M84.43 18.95 C84.31 28.86, 83.47 40.14, 84.43 56.85 M84.43 56.85 C86.21 67.55, 78.5 76.53, 65.48 75.8 M84.43 56.85 C83.76 69.44, 78.25 76.63, 65.48 75.8 M65.48 75.8 C52.04 75.85, 35.58 77.45, 18.95 75.8 M65.48 75.8 C51.83 76.94, 40.01 77.03, 18.95 75.8 M18.95 75.8 C7.66 76.7, 0.41 69.22, 0 56.85 M18.95 75.8 C7.8 76.56, -1.76 67.51, 0 56.85 M0 56.85 C-0.18 46.39, 0.01 38.15, 0 18.95 M0 56.85 C0.6 44.55, 1.28 32.82, 0 18.95 M0 18.95 C1.58 6.82, 8.21 0.86, 18.95 0 M0 18.95 C0.95 7.51, 7.28 -1.68, 18.95 0" stroke="#000000" stroke-width="1" fill="none"></path></g><g stroke-linecap="round" transform="translate(222.64114983376436 35.608236329254936) rotate(0 42.21645761313681 37.90002319909709)"><path d="M18.95 0 M18.95 0 C34.76 0.21, 53.11 -0.9, 65.48 0 M18.95 0 C30.94 0.77, 43.75 0.04, 65.48 0 M65.48 0 C79.21 1.53, 84.38 7.88, 84.43 18.95 M65.48 0 C76.99 -1.06, 85.65 4.82, 84.43 18.95 M84.43 18.95 C83.28 32.83, 86.54 44.79, 84.43 56.85 M84.43 18.95 C84.31 28.86, 83.47 40.14, 84.43 56.85 M84.43 56.85 C86.21 67.55, 78.5 76.53, 65.48 75.8 M84.43 56.85 C83.76 69.44, 78.25 76.63, 65.48 75.8 M65.48 75.8 C52.04 75.85, 35.58 77.45, 18.95 75.8 M65.48 75.8 C51.83 76.94, 40.01 77.03, 18.95 75.8 M18.95 75.8 C7.66 76.7, 0.41 69.22, 0 56.85 M18.95 75.8 C7.8 76.56, -1.76 67.51, 0 56.85 M0 56.85 C-0.18 46.39, 0.01 38.15, 0 18.95 M0 56.85 C0.6 44.55, 1.28 32.82, 0 18.95 M0 18.95 C1.58 6.82, 8.21 0.86, 18.95 0 M0 18.95 C0.95 7.51, 7.28 -1.68, 18.95 0" stroke="#000000" stroke-width="1" fill="none"></path></g><g stroke-linecap="round" transform="translate(313.7308837987144 36.44805761725124) rotate(0 42.21645761313681 37.90002319909709)"><path d="M18.95 0 M18.95 0 C34.76 0.21, 53.11 -0.9, 65.48 0 M18.95 0 C30.94 0.77, 43.75 0.04, 65.48 0 M65.48 0 C79.21 1.53, 84.38 7.88, 84.43 18.95 M65.48 0 C76.99 -1.06, 85.65 4.82, 84.43 18.95 M84.43 18.95 C83.28 32.83, 86.54 44.79, 84.43 56.85 M84.43 18.95 C84.31 28.86, 83.47 40.14, 84.43 56.85 M84.43 56.85 C86.21 67.55, 78.5 76.53, 65.48 75.8 M84.43 56.85 C83.76 69.44, 78.25 76.63, 65.48 75.8 M65.48 75.8 C52.04 75.85, 35.58 77.45, 18.95 75.8 M65.48 75.8 C51.83 76.94, 40.01 77.03, 18.95 75.8 M18.95 75.8 C7.66 76.7, 0.41 69.22, 0 56.85 M18.95 75.8 C7.8 76.56, -1.76 67.51, 0 56.85 M0 56.85 C-0.18 46.39, 0.01 38.15, 0 18.95 M0 56.85 C0.6 44.55, 1.28 32.82, 0 18.95 M0 18.95 C1.58 6.82, 8.21 0.86, 18.95 0 M0 18.95 C0.95 7.51, 7.28 -1.68, 18.95 0" stroke="#000000" stroke-width="1" fill="none"></path></g><g stroke-linecap="round" transform="translate(409.9398225265242 36.108424008135074) rotate(0 42.21645761313681 37.90002319909709)"><path d="M18.95 0 M18.95 0 C34.76 0.21, 53.11 -0.9, 65.48 0 M18.95 0 C30.94 0.77, 43.75 0.04, 65.48 0 M65.48 0 C79.21 1.53, 84.38 7.88, 84.43 18.95 M65.48 0 C76.99 -1.06, 85.65 4.82, 84.43 18.95 M84.43 18.95 C83.28 32.83, 86.54 44.79, 84.43 56.85 M84.43 18.95 C84.31 28.86, 83.47 40.14, 84.43 56.85 M84.43 56.85 C86.21 67.55, 78.5 76.53, 65.48 75.8 M84.43 56.85 C83.76 69.44, 78.25 76.63, 65.48 75.8 M65.48 75.8 C52.04 75.85, 35.58 77.45, 18.95 75.8 M65.48 75.8 C51.83 76.94, 40.01 77.03, 18.95 75.8 M18.95 75.8 C7.66 76.7, 0.41 69.22, 0 56.85 M18.95 75.8 C7.8 76.56, -1.76 67.51, 0 56.85 M0 56.85 C-0.18 46.39, 0.01 38.15, 0 18.95 M0 56.85 C0.6 44.55, 1.28 32.82, 0 18.95 M0 18.95 C1.58 6.82, 8.21 0.86, 18.95 0 M0 18.95 C0.95 7.51, 7.28 -1.68, 18.95 0" stroke="#000000" stroke-width="1" fill="none"></path></g><g stroke-linecap="round" transform="translate(503.59224645116876 35.274777876668026) rotate(0 42.21645761313681 37.90002319909709)"><path d="M18.95 0 M18.95 0 C34.76 0.21, 53.11 -0.9, 65.48 0 M18.95 0 C30.94 0.77, 43.75 0.04, 65.48 0 M65.48 0 C79.21 1.53, 84.38 7.88, 84.43 18.95 M65.48 0 C76.99 -1.06, 85.65 4.82, 84.43 18.95 M84.43 18.95 C83.28 32.83, 86.54 44.79, 84.43 56.85 M84.43 18.95 C84.31 28.86, 83.47 40.14, 84.43 56.85 M84.43 56.85 C86.21 67.55, 78.5 76.53, 65.48 75.8 M84.43 56.85 C83.76 69.44, 78.25 76.63, 65.48 75.8 M65.48 75.8 C52.04 75.85, 35.58 77.45, 18.95 75.8 M65.48 75.8 C51.83 76.94, 40.01 77.03, 18.95 75.8 M18.95 75.8 C7.66 76.7, 0.41 69.22, 0 56.85 M18.95 75.8 C7.8 76.56, -1.76 67.51, 0 56.85 M0 56.85 C-0.18 46.39, 0.01 38.15, 0 18.95 M0 56.85 C0.6 44.55, 1.28 32.82, 0 18.95 M0 18.95 C1.58 6.82, 8.21 0.86, 18.95 0 M0 18.95 C0.95 7.51, 7.28 -1.68, 18.95 0" stroke="#000000" stroke-width="1" fill="none"></path></g><g stroke-linecap="round" transform="translate(596.1887186092887 33.38517997867652) rotate(0 42.21645761313681 37.90002319909709)"><path d="M18.95 0 M18.95 0 C34.76 0.21, 53.11 -0.9, 65.48 0 M18.95 0 C30.94 0.77, 43.75 0.04, 65.48 0 M65.48 0 C79.21 1.53, 84.38 7.88, 84.43 18.95 M65.48 0 C76.99 -1.06, 85.65 4.82, 84.43 18.95 M84.43 18.95 C83.28 32.83, 86.54 44.79, 84.43 56.85 M84.43 18.95 C84.31 28.86, 83.47 40.14, 84.43 56.85 M84.43 56.85 C86.21 67.55, 78.5 76.53, 65.48 75.8 M84.43 56.85 C83.76 69.44, 78.25 76.63, 65.48 75.8 M65.48 75.8 C52.04 75.85, 35.58 77.45, 18.95 75.8 M65.48 75.8 C51.83 76.94, 40.01 77.03, 18.95 75.8 M18.95 75.8 C7.66 76.7, 0.41 69.22, 0 56.85 M18.95 75.8 C7.8 76.56, -1.76 67.51, 0 56.85 M0 56.85 C-0.18 46.39, 0.01 38.15, 0 18.95 M0 56.85 C0.6 44.55, 1.28 32.82, 0 18.95 M0 18.95 C1.58 6.82, 8.21 0.86, 18.95 0 M0 18.95 C0.95 7.51, 7.28 -1.68, 18.95 0" stroke="#000000" stroke-width="1" fill="none"></path></g><g stroke-linecap="round" transform="translate(322.23234287166434 648.2980044399866) rotate(0 37.04785159804203 29.25171647969421)"><path d="M3.89 3.38 C3.89 3.38, 3.89 3.38, 3.89 3.38 M3.89 3.38 C3.89 3.38, 3.89 3.38, 3.89 3.38 M1.66 12.05 C3.87 10.71, 5.57 8.14, 10.19 2.23 M1.66 12.05 C4.02 8.45, 7.68 5.07, 10.19 2.23 M1.4 18.44 C6.45 13.76, 8.93 6.46, 16.49 1.09 M1.4 18.44 C6.08 12.12, 10.97 7.51, 16.49 1.09 M1.14 24.84 C6.03 19.97, 10.16 13.33, 21.48 1.45 M1.14 24.84 C7.42 17.03, 15.15 10.63, 21.48 1.45 M1.54 30.48 C12.26 22.18, 18.64 12.38, 27.12 1.05 M1.54 30.48 C7.77 23.42, 13.39 17.28, 27.12 1.05 M1.27 36.88 C10.93 26.27, 20.6 13.55, 32.11 1.41 M1.27 36.88 C10.37 26.53, 17.35 16.6, 32.11 1.41 M1.67 42.53 C12.67 31.29, 21.42 20.58, 37.75 1.02 M1.67 42.53 C10.25 31.6, 20.48 21.29, 37.75 1.02 M1.41 48.92 C13.43 35.69, 25.37 22.66, 42.74 1.38 M1.41 48.92 C15.76 32.47, 28.7 18.15, 42.74 1.38 M3.77 52.3 C20.23 35.2, 34.34 20.44, 47.73 1.74 M3.77 52.3 C13.09 41.58, 23.63 28.95, 47.73 1.74 M5.48 56.44 C21.59 36.05, 41.23 19.81, 53.37 1.34 M5.48 56.44 C20.87 38.79, 36.15 20.06, 53.37 1.34 M9.15 58.31 C18.24 46.67, 31.18 33.32, 59.67 0.19 M9.15 58.31 C24.13 43.65, 38.06 25.79, 59.67 0.19 M14.14 58.67 C29.87 39.87, 47.63 18.93, 64.65 0.55 M14.14 58.67 C24.84 45.19, 35.58 33.3, 64.65 0.55 M17.16 61.29 C36.8 38.99, 53.42 19.25, 68.33 2.42 M17.16 61.29 C30.27 46.71, 42.41 31.57, 68.33 2.42 M22.8 60.9 C38.87 39.89, 59.15 18.62, 71.35 5.05 M22.8 60.9 C34.66 47.4, 48.05 32.99, 71.35 5.05 M27.79 61.26 C44.51 44.14, 58.38 25.45, 73.71 8.43 M27.79 61.26 C44.15 44, 59.32 25.77, 73.71 8.43 M33.43 60.86 C42.45 48.42, 52.14 39.49, 74.11 14.07 M33.43 60.86 C43.32 49.04, 54.22 38.17, 74.11 14.07 M38.42 61.22 C52.65 45.65, 64.46 31.71, 77.12 16.69 M38.42 61.22 C47.35 51.23, 56.81 39.08, 77.12 16.69 M44.06 60.83 C54.51 50.85, 63.82 42.06, 76.86 23.09 M44.06 60.83 C52.72 50.77, 62.32 39.77, 76.86 23.09 M49.05 61.19 C60.66 47.68, 68.84 37.81, 76.6 29.49 M49.05 61.19 C58.94 48.95, 69.46 37.59, 76.6 29.49 M54.69 60.79 C63.47 52.5, 70.07 42.19, 77 35.13 M54.69 60.79 C59.77 54.98, 65.29 48.62, 77 35.13 M60.99 59.64 C66.01 52.9, 73.04 47.44, 76.74 41.53 M60.99 59.64 C66.54 54.09, 70 48.81, 76.74 41.53" stroke="#fab005" stroke-width="0.5" fill="none"></path><path d="M14.63 0 M14.63 0 C24.71 -0.87, 35.44 1.63, 59.47 0 M14.63 0 C22.9 0.11, 32.67 0.26, 59.47 0 M59.47 0 C69.35 1.04, 75.87 5.21, 74.1 14.63 M59.47 0 C67.31 0.84, 72.48 3.08, 74.1 14.63 M74.1 14.63 C74.71 19.72, 75.7 29.17, 74.1 43.88 M74.1 14.63 C73.54 22.56, 74.45 29.86, 74.1 43.88 M74.1 43.88 C74.11 54.46, 70.24 56.58, 59.47 58.5 M74.1 43.88 C72.76 53.28, 68.07 58.52, 59.47 58.5 M59.47 58.5 C48.39 59.69, 40.36 57.33, 14.63 58.5 M59.47 58.5 C47.62 58.34, 37.01 59.45, 14.63 58.5 M14.63 58.5 C3.1 57.45, 1.54 51.72, 0 43.88 M14.63 58.5 C6.58 56.86, -1.06 51.45, 0 43.88 M0 43.88 C1 36.84, 1.17 29.64, 0 14.63 M0 43.88 C0.54 35.07, 1.21 24.26, 0 14.63 M0 14.63 C-1.71 3.87, 4.06 -0.47, 14.63 0 M0 14.63 C0.77 6.98, 2.61 0.3, 14.63 0" stroke="#000000" stroke-width="1" fill="none"></path></g><g stroke-linecap="round" transform="translate(36.57577697886899 815.0797195638675) rotate(0 42.21645761313681 37.90002319909712)"><path d="M18.95 0 M18.95 0 C34.76 0.21, 53.11 -0.9, 65.48 0 M18.95 0 C30.94 0.77, 43.75 0.04, 65.48 0 M65.48 0 C79.21 1.53, 84.38 7.88, 84.43 18.95 M65.48 0 C76.99 -1.06, 85.65 4.82, 84.43 18.95 M84.43 18.95 C83.28 32.83, 86.54 44.79, 84.43 56.85 M84.43 18.95 C84.31 28.86, 83.47 40.14, 84.43 56.85 M84.43 56.85 C86.21 67.55, 78.5 76.53, 65.48 75.8 M84.43 56.85 C83.76 69.44, 78.25 76.63, 65.48 75.8 M65.48 75.8 C52.04 75.85, 35.58 77.45, 18.95 75.8 M65.48 75.8 C51.83 76.94, 40.01 77.03, 18.95 75.8 M18.95 75.8 C7.66 76.7, 0.41 69.22, 0 56.85 M18.95 75.8 C7.8 76.56, -1.76 67.51, 0 56.85 M0 56.85 C-0.18 46.39, 0.01 38.15, 0 18.95 M0 56.85 C0.6 44.55, 1.28 32.82, 0 18.95 M0 18.95 C1.58 6.82, 8.21 0.86, 18.95 0 M0 18.95 C0.95 7.51, 7.28 -1.68, 18.95 0" stroke="#000000" stroke-width="1" fill="none"></path></g><g stroke-linecap="round" transform="translate(32.376670538887595 730.338046511124) rotate(0 42.21645761313681 37.90002319909712)"><path d="M18.95 0 M18.95 0 C34.76 0.21, 53.11 -0.9, 65.48 0 M18.95 0 C30.94 0.77, 43.75 0.04, 65.48 0 M65.48 0 C79.21 1.53, 84.38 7.88, 84.43 18.95 M65.48 0 C76.99 -1.06, 85.65 4.82, 84.43 18.95 M84.43 18.95 C83.28 32.83, 86.54 44.79, 84.43 56.85 M84.43 18.95 C84.31 28.86, 83.47 40.14, 84.43 56.85 M84.43 56.85 C86.21 67.55, 78.5 76.53, 65.48 75.8 M84.43 56.85 C83.76 69.44, 78.25 76.63, 65.48 75.8 M65.48 75.8 C52.04 75.85, 35.58 77.45, 18.95 75.8 M65.48 75.8 C51.83 76.94, 40.01 77.03, 18.95 75.8 M18.95 75.8 C7.66 76.7, 0.41 69.22, 0 56.85 M18.95 75.8 C7.8 76.56, -1.76 67.51, 0 56.85 M0 56.85 C-0.18 46.39, 0.01 38.15, 0 18.95 M0 56.85 C0.6 44.55, 1.28 32.82, 0 18.95 M0 18.95 C1.58 6.82, 8.21 0.86, 18.95 0 M0 18.95 C0.95 7.51, 7.28 -1.68, 18.95 0" stroke="#000000" stroke-width="1" fill="none"></path></g><g stroke-linecap="round" transform="translate(32.03086177324195 641.1811365398712) rotate(0 42.21645761313681 37.90002319909712)"><path d="M18.95 0 M18.95 0 C34.76 0.21, 53.11 -0.9, 65.48 0 M18.95 0 C30.94 0.77, 43.75 0.04, 65.48 0 M65.48 0 C79.21 1.53, 84.38 7.88, 84.43 18.95 M65.48 0 C76.99 -1.06, 85.65 4.82, 84.43 18.95 M84.43 18.95 C83.28 32.83, 86.54 44.79, 84.43 56.85 M84.43 18.95 C84.31 28.86, 83.47 40.14, 84.43 56.85 M84.43 56.85 C86.21 67.55, 78.5 76.53, 65.48 75.8 M84.43 56.85 C83.76 69.44, 78.25 76.63, 65.48 75.8 M65.48 75.8 C52.04 75.85, 35.58 77.45, 18.95 75.8 M65.48 75.8 C51.83 76.94, 40.01 77.03, 18.95 75.8 M18.95 75.8 C7.66 76.7, 0.41 69.22, 0 56.85 M18.95 75.8 C7.8 76.56, -1.76 67.51, 0 56.85 M0 56.85 C-0.18 46.39, 0.01 38.15, 0 18.95 M0 56.85 C0.6 44.55, 1.28 32.82, 0 18.95 M0 18.95 C1.58 6.82, 8.21 0.86, 18.95 0 M0 18.95 C0.95 7.51, 7.28 -1.68, 18.95 0" stroke="#000000" stroke-width="1" fill="none"></path></g><g stroke-linecap="round" transform="translate(27.44889562843872 552.8084714478503) rotate(0 42.21645761313681 37.90002319909712)"><path d="M18.95 0 M18.95 0 C34.76 0.21, 53.11 -0.9, 65.48 0 M18.95 0 C30.94 0.77, 43.75 0.04, 65.48 0 M65.48 0 C79.21 1.53, 84.38 7.88, 84.43 18.95 M65.48 0 C76.99 -1.06, 85.65 4.82, 84.43 18.95 M84.43 18.95 C83.28 32.83, 86.54 44.79, 84.43 56.85 M84.43 18.95 C84.31 28.86, 83.47 40.14, 84.43 56.85 M84.43 56.85 C86.21 67.55, 78.5 76.53, 65.48 75.8 M84.43 56.85 C83.76 69.44, 78.25 76.63, 65.48 75.8 M65.48 75.8 C52.04 75.85, 35.58 77.45, 18.95 75.8 M65.48 75.8 C51.83 76.94, 40.01 77.03, 18.95 75.8 M18.95 75.8 C7.66 76.7, 0.41 69.22, 0 56.85 M18.95 75.8 C7.8 76.56, -1.76 67.51, 0 56.85 M0 56.85 C-0.18 46.39, 0.01 38.15, 0 18.95 M0 56.85 C0.6 44.55, 1.28 32.82, 0 18.95 M0 18.95 C1.58 6.82, 8.21 0.86, 18.95 0 M0 18.95 C0.95 7.51, 7.28 -1.68, 18.95 0" stroke="#000000" stroke-width="1" fill="none"></path></g><g stroke-linecap="round" transform="translate(26.954883106087948 467.72098962946166) rotate(0 42.21645761313681 37.90002319909712)"><path d="M18.95 0 M18.95 0 C34.76 0.21, 53.11 -0.9, 65.48 0 M18.95 0 C30.94 0.77, 43.75 0.04, 65.48 0 M65.48 0 C79.21 1.53, 84.38 7.88, 84.43 18.95 M65.48 0 C76.99 -1.06, 85.65 4.82, 84.43 18.95 M84.43 18.95 C83.28 32.83, 86.54 44.79, 84.43 56.85 M84.43 18.95 C84.31 28.86, 83.47 40.14, 84.43 56.85 M84.43 56.85 C86.21 67.55, 78.5 76.53, 65.48 75.8 M84.43 56.85 C83.76 69.44, 78.25 76.63, 65.48 75.8 M65.48 75.8 C52.04 75.85, 35.58 77.45, 18.95 75.8 M65.48 75.8 C51.83 76.94, 40.01 77.03, 18.95 75.8 M18.95 75.8 C7.66 76.7, 0.41 69.22, 0 56.85 M18.95 75.8 C7.8 76.56, -1.76 67.51, 0 56.85 M0 56.85 C-0.18 46.39, 0.01 38.15, 0 18.95 M0 56.85 C0.6 44.55, 1.28 32.82, 0 18.95 M0 18.95 C1.58 6.82, 8.21 0.86, 18.95 0 M0 18.95 C0.95 7.51, 7.28 -1.68, 18.95 0" stroke="#000000" stroke-width="1" fill="none"></path></g><g stroke-linecap="round" transform="translate(23.7623271803962 381.7319349577831) rotate(0 42.21645761313681 37.90002319909712)"><path d="M18.95 0 M18.95 0 C34.76 0.21, 53.11 -0.9, 65.48 0 M18.95 0 C30.94 0.77, 43.75 0.04, 65.48 0 M65.48 0 C79.21 1.53, 84.38 7.88, 84.43 18.95 M65.48 0 C76.99 -1.06, 85.65 4.82, 84.43 18.95 M84.43 18.95 C83.28 32.83, 86.54 44.79, 84.43 56.85 M84.43 18.95 C84.31 28.86, 83.47 40.14, 84.43 56.85 M84.43 56.85 C86.21 67.55, 78.5 76.53, 65.48 75.8 M84.43 56.85 C83.76 69.44, 78.25 76.63, 65.48 75.8 M65.48 75.8 C52.04 75.85, 35.58 77.45, 18.95 75.8 M65.48 75.8 C51.83 76.94, 40.01 77.03, 18.95 75.8 M18.95 75.8 C7.66 76.7, 0.41 69.22, 0 56.85 M18.95 75.8 C7.8 76.56, -1.76 67.51, 0 56.85 M0 56.85 C-0.18 46.39, 0.01 38.15, 0 18.95 M0 56.85 C0.6 44.55, 1.28 32.82, 0 18.95 M0 18.95 C1.58 6.82, 8.21 0.86, 18.95 0 M0 18.95 C0.95 7.51, 7.28 -1.68, 18.95 0" stroke="#000000" stroke-width="1" fill="none"></path></g><g stroke-linecap="round" transform="translate(25.670450547975918 295.6008516859288) rotate(0 42.21645761313681 37.90002319909712)"><path d="M18.95 0 M18.95 0 C34.76 0.21, 53.11 -0.9, 65.48 0 M18.95 0 C30.94 0.77, 43.75 0.04, 65.48 0 M65.48 0 C79.21 1.53, 84.38 7.88, 84.43 18.95 M65.48 0 C76.99 -1.06, 85.65 4.82, 84.43 18.95 M84.43 18.95 C83.28 32.83, 86.54 44.79, 84.43 56.85 M84.43 18.95 C84.31 28.86, 83.47 40.14, 84.43 56.85 M84.43 56.85 C86.21 67.55, 78.5 76.53, 65.48 75.8 M84.43 56.85 C83.76 69.44, 78.25 76.63, 65.48 75.8 M65.48 75.8 C52.04 75.85, 35.58 77.45, 18.95 75.8 M65.48 75.8 C51.83 76.94, 40.01 77.03, 18.95 75.8 M18.95 75.8 C7.66 76.7, 0.41 69.22, 0 56.85 M18.95 75.8 C7.8 76.56, -1.76 67.51, 0 56.85 M0 56.85 C-0.18 46.39, 0.01 38.15, 0 18.95 M0 56.85 C0.6 44.55, 1.28 32.82, 0 18.95 M0 18.95 C1.58 6.82, 8.21 0.86, 18.95 0 M0 18.95 C0.95 7.51, 7.28 -1.68, 18.95 0" stroke="#000000" stroke-width="1" fill="none"></path></g><g stroke-linecap="round" transform="translate(26.646125279618843 207.2034859677901) rotate(0 42.21645761313681 37.90002319909709)"><path d="M18.95 0 M18.95 0 C34.76 0.21, 53.11 -0.9, 65.48 0 M18.95 0 C30.94 0.77, 43.75 0.04, 65.48 0 M65.48 0 C79.21 1.53, 84.38 7.88, 84.43 18.95 M65.48 0 C76.99 -1.06, 85.65 4.82, 84.43 18.95 M84.43 18.95 C83.28 32.83, 86.54 44.79, 84.43 56.85 M84.43 18.95 C84.31 28.86, 83.47 40.14, 84.43 56.85 M84.43 56.85 C86.21 67.55, 78.5 76.53, 65.48 75.8 M84.43 56.85 C83.76 69.44, 78.25 76.63, 65.48 75.8 M65.48 75.8 C52.04 75.85, 35.58 77.45, 18.95 75.8 M65.48 75.8 C51.83 76.94, 40.01 77.03, 18.95 75.8 M18.95 75.8 C7.66 76.7, 0.41 69.22, 0 56.85 M18.95 75.8 C7.8 76.56, -1.76 67.51, 0 56.85 M0 56.85 C-0.18 46.39, 0.01 38.15, 0 18.95 M0 56.85 C0.6 44.55, 1.28 32.82, 0 18.95 M0 18.95 C1.58 6.82, 8.21 0.86, 18.95 0 M0 18.95 C0.95 7.51, 7.28 -1.68, 18.95 0" stroke="#000000" stroke-width="1" fill="none"></path></g><g stroke-linecap="round" transform="translate(26.979583732205583 122.00485133187314) rotate(0 42.21645761313681 37.90002319909709)"><path d="M18.95 0 M18.95 0 C34.76 0.21, 53.11 -0.9, 65.48 0 M18.95 0 C30.94 0.77, 43.75 0.04, 65.48 0 M65.48 0 C79.21 1.53, 84.38 7.88, 84.43 18.95 M65.48 0 C76.99 -1.06, 85.65 4.82, 84.43 18.95 M84.43 18.95 C83.28 32.83, 86.54 44.79, 84.43 56.85 M84.43 18.95 C84.31 28.86, 83.47 40.14, 84.43 56.85 M84.43 56.85 C86.21 67.55, 78.5 76.53, 65.48 75.8 M84.43 56.85 C83.76 69.44, 78.25 76.63, 65.48 75.8 M65.48 75.8 C52.04 75.85, 35.58 77.45, 18.95 75.8 M65.48 75.8 C51.83 76.94, 40.01 77.03, 18.95 75.8 M18.95 75.8 C7.66 76.7, 0.41 69.22, 0 56.85 M18.95 75.8 C7.8 76.56, -1.76 67.51, 0 56.85 M0 56.85 C-0.18 46.39, 0.01 38.15, 0 18.95 M0 56.85 C0.6 44.55, 1.28 32.82, 0 18.95 M0 18.95 C1.58 6.82, 8.21 0.86, 18.95 0 M0 18.95 C0.95 7.51, 7.28 -1.68, 18.95 0" stroke="#000000" stroke-width="1" fill="none"></path></g><g stroke-linecap="round" transform="translate(28.264016290317613 34.99689583284609) rotate(0 42.21645761313681 37.90002319909709)"><path d="M18.95 0 M18.95 0 C34.76 0.21, 53.11 -0.9, 65.48 0 M18.95 0 C30.94 0.77, 43.75 0.04, 65.48 0 M65.48 0 C79.21 1.53, 84.38 7.88, 84.43 18.95 M65.48 0 C76.99 -1.06, 85.65 4.82, 84.43 18.95 M84.43 18.95 C83.28 32.83, 86.54 44.79, 84.43 56.85 M84.43 18.95 C84.31 28.86, 83.47 40.14, 84.43 56.85 M84.43 56.85 C86.21 67.55, 78.5 76.53, 65.48 75.8 M84.43 56.85 C83.76 69.44, 78.25 76.63, 65.48 75.8 M65.48 75.8 C52.04 75.85, 35.58 77.45, 18.95 75.8 M65.48 75.8 C51.83 76.94, 40.01 77.03, 18.95 75.8 M18.95 75.8 C7.66 76.7, 0.41 69.22, 0 56.85 M18.95 75.8 C7.8 76.56, -1.76 67.51, 0 56.85 M0 56.85 C-0.18 46.39, 0.01 38.15, 0 18.95 M0 56.85 C0.6 44.55, 1.28 32.82, 0 18.95 M0 18.95 C1.58 6.82, 8.21 0.86, 18.95 0 M0 18.95 C0.95 7.51, 7.28 -1.68, 18.95 0" stroke="#000000" stroke-width="1" fill="none"></path></g><g stroke-linecap="round"><g transform="translate(358.8757217170318 665.5822675657336) rotate(0 -0.558435986491105 -40.178155257615)"><path d="M0.28 -0.1 C0.24 -13.42, -0.59 -67.17, -0.67 -80.25 M-1.03 -1.2 C-1.16 -14.36, -1.47 -65.9, -1.38 -79.13" stroke="#000000" stroke-width="1" fill="none"></path></g><g transform="translate(358.8757217170318 665.5822675657336) rotate(0 -0.558435986491105 -40.178155257615)"><path d="M8.72 -50.19 C4.94 -56.89, 4.92 -65.38, -3.1 -79.98 M8.19 -51.1 C5.71 -62.09, 0.8 -71.77, -1.23 -79.14" stroke="#000000" stroke-width="1" fill="none"></path></g><g transform="translate(358.8757217170318 665.5822675657336) rotate(0 -0.558435986491105 -40.178155257615)"><path d="M-11.8 -50.18 C-10.12 -56.93, -4.7 -65.42, -3.1 -79.98 M-12.33 -51.09 C-7.24 -62.21, -4.57 -71.89, -1.23 -79.14" stroke="#000000" stroke-width="1" fill="none"></path></g></g><mask></mask><g stroke-linecap="round"><g transform="translate(366.5683517860486 678.291131846796) rotate(0 44.240931520065914 -0.6117600331488688)"><path d="M0.28 -0.1 C15.27 -0.24, 74.57 -1.25, 89.52 -1.15 M-1.03 -1.2 C13.87 -1.17, 73.68 0.02, 88.8 -0.02" stroke="#000000" stroke-width="1" fill="none"></path></g><g transform="translate(366.5683517860486 678.291131846796) rotate(0 44.240931520065914 -0.6117600331488688)"><path d="M60.34 10.71 C66.76 8.76, 76.98 5.11, 87.08 -0.88 M59.81 9.79 C71.71 5.28, 81.04 2.33, 88.96 -0.04" stroke="#000000" stroke-width="1" fill="none"></path></g><g transform="translate(366.5683517860486 678.291131846796) rotate(0 44.240931520065914 -0.6117600331488688)"><path d="M60.55 -9.81 C66.85 -6.31, 77.02 -4.5, 87.08 -0.88 M60.01 -10.73 C72.01 -7.66, 81.26 -3.05, 88.96 -0.04" stroke="#000000" stroke-width="1" fill="none"></path></g></g><mask></mask><g stroke-linecap="round"><g transform="translate(346.4496918133139 678.0503007421501) rotate(0 -42.06953474200131 -0.4681495135461091)"><path d="M0.28 -0.1 C-13.6 -0.19, -69.79 -1.01, -83.71 -0.86 M-1.03 -1.2 C-15 -1.12, -70.67 0.26, -84.42 0.27" stroke="#000000" stroke-width="1" fill="none"></path></g><g transform="translate(346.4496918133139 678.0503007421501) rotate(0 -42.06953474200131 -0.4681495135461091)"><path d="M-56.55 -9.65 C-65.16 -5.98, -69.91 -4.14, -86.14 -0.59 M-57.08 -10.56 C-65.79 -7.1, -77.25 -2.44, -84.26 0.25" stroke="#000000" stroke-width="1" fill="none"></path></g><g transform="translate(346.4496918133139 678.0503007421501) rotate(0 -42.06953474200131 -0.4681495135461091)"><path d="M-56.25 10.87 C-64.89 9.09, -69.72 5.47, -86.14 -0.59 M-56.79 9.96 C-65.78 5.85, -77.35 2.94, -84.26 0.25" stroke="#000000" stroke-width="1" fill="none"></path></g></g><mask></mask><g stroke-linecap="round"><g transform="translate(359.3125428640216 692.3704887337923) rotate(0 0.24781637115205513 38.21920614304764)"><path d="M0.28 -0.1 C0.6 12.71, 1.24 63.47, 1.53 76.51 M-1.03 -1.2 C-0.79 11.77, 0.36 64.73, 0.82 77.64" stroke="#000000" stroke-width="1" fill="none"></path></g><g transform="translate(359.3125428640216 692.3704887337923) rotate(0 0.24781637115205513 38.21920614304764)"><path d="M-10.38 50.49 C-8.66 58.65, -3.02 65.07, -0.91 76.79 M-10.92 49.58 C-5.07 59.15, -2.11 70.17, 0.97 77.63" stroke="#000000" stroke-width="1" fill="none"></path></g><g transform="translate(359.3125428640216 692.3704887337923) rotate(0 0.24781637115205513 38.21920614304764)"><path d="M10.13 49.93 C6.4 58.29, 6.58 64.85, -0.91 76.79 M9.59 49.02 C7.88 58.93, 3.27 70.15, 0.97 77.63" stroke="#000000" stroke-width="1" fill="none"></path></g></g><mask></mask><g stroke-linecap="round" transform="translate(133.76660517109235 45.080898469755226) rotate(0 37.04785159804203 29.251716479694238)"><path d="M3.89 3.38 C3.89 3.38, 3.89 3.38, 3.89 3.38 M3.89 3.38 C3.89 3.38, 3.89 3.38, 3.89 3.38 M1.66 12.05 C3.87 10.71, 5.57 8.14, 10.19 2.23 M1.66 12.05 C4.02 8.45, 7.68 5.07, 10.19 2.23 M1.4 18.44 C6.45 13.76, 8.93 6.46, 16.49 1.09 M1.4 18.44 C6.08 12.12, 10.97 7.51, 16.49 1.09 M1.14 24.84 C6.03 19.97, 10.16 13.33, 21.48 1.45 M1.14 24.84 C7.42 17.03, 15.15 10.63, 21.48 1.45 M1.54 30.48 C12.26 22.18, 18.64 12.38, 27.12 1.05 M1.54 30.48 C7.77 23.42, 13.39 17.28, 27.12 1.05 M1.27 36.88 C10.93 26.27, 20.6 13.55, 32.11 1.41 M1.27 36.88 C10.37 26.53, 17.35 16.6, 32.11 1.41 M1.67 42.53 C12.67 31.29, 21.42 20.58, 37.75 1.02 M1.67 42.53 C10.25 31.6, 20.48 21.29, 37.75 1.02 M1.41 48.92 C13.43 35.69, 25.37 22.66, 42.74 1.38 M1.41 48.92 C15.76 32.47, 28.7 18.15, 42.74 1.38 M3.77 52.3 C20.23 35.2, 34.34 20.44, 47.73 1.74 M3.77 52.3 C13.09 41.58, 23.63 28.95, 47.73 1.74 M5.48 56.44 C21.59 36.05, 41.23 19.81, 53.37 1.34 M5.48 56.44 C20.87 38.79, 36.15 20.06, 53.37 1.34 M9.15 58.31 C18.24 46.67, 31.18 33.32, 59.67 0.19 M9.15 58.31 C24.13 43.65, 38.06 25.79, 59.67 0.19 M14.14 58.67 C29.87 39.87, 47.63 18.93, 64.65 0.55 M14.14 58.67 C24.84 45.19, 35.58 33.3, 64.65 0.55 M17.16 61.29 C36.8 38.99, 53.42 19.25, 68.33 2.42 M17.16 61.29 C30.27 46.71, 42.41 31.57, 68.33 2.42 M22.8 60.9 C38.87 39.89, 59.15 18.62, 71.35 5.05 M22.8 60.9 C34.66 47.4, 48.05 32.99, 71.35 5.05 M27.79 61.26 C44.51 44.14, 58.38 25.45, 73.71 8.43 M27.79 61.26 C44.15 44, 59.32 25.77, 73.71 8.43 M33.43 60.86 C42.45 48.42, 52.14 39.49, 74.11 14.07 M33.43 60.86 C43.32 49.04, 54.22 38.17, 74.11 14.07 M38.42 61.22 C52.65 45.65, 64.46 31.71, 77.12 16.69 M38.42 61.22 C47.35 51.23, 56.81 39.08, 77.12 16.69 M44.06 60.83 C54.51 50.85, 63.82 42.06, 76.86 23.09 M44.06 60.83 C52.72 50.77, 62.32 39.77, 76.86 23.09 M49.05 61.19 C60.66 47.68, 68.84 37.81, 76.6 29.49 M49.05 61.19 C58.94 48.95, 69.46 37.59, 76.6 29.49 M54.69 60.79 C63.47 52.5, 70.07 42.19, 77 35.13 M54.69 60.79 C59.77 54.98, 65.29 48.62, 77 35.13 M60.99 59.64 C66.01 52.9, 73.04 47.44, 76.74 41.53 M60.99 59.64 C66.54 54.09, 70 48.81, 76.74 41.53" stroke="#fa5252" stroke-width="0.5" fill="none"></path><path d="M14.63 0 M14.63 0 C24.71 -0.87, 35.44 1.63, 59.47 0 M14.63 0 C22.9 0.11, 32.67 0.26, 59.47 0 M59.47 0 C69.35 1.04, 75.87 5.21, 74.1 14.63 M59.47 0 C67.31 0.84, 72.48 3.08, 74.1 14.63 M74.1 14.63 C74.71 19.72, 75.7 29.17, 74.1 43.88 M74.1 14.63 C73.54 22.56, 74.45 29.86, 74.1 43.88 M74.1 43.88 C74.11 54.46, 70.24 56.58, 59.47 58.5 M74.1 43.88 C72.76 53.28, 68.07 58.52, 59.47 58.5 M59.47 58.5 C48.39 59.69, 40.36 57.33, 14.63 58.5 M59.47 58.5 C47.62 58.34, 37.01 59.45, 14.63 58.5 M14.63 58.5 C3.1 57.45, 1.54 51.72, 0 43.88 M14.63 58.5 C6.58 56.86, -1.06 51.45, 0 43.88 M0 43.88 C1 36.84, 1.17 29.64, 0 14.63 M0 43.88 C0.54 35.07, 1.21 24.26, 0 14.63 M0 14.63 C-1.71 3.87, 4.06 -0.47, 14.63 0 M0 14.63 C0.77 6.98, 2.61 0.3, 14.63 0" stroke="#000000" stroke-width="1" fill="none"></path></g><g stroke-linecap="round" transform="translate(507.52460729143695 131.9295985101236) rotate(0 37.04785159804203 29.251716479694238)"><path d="M3.89 3.38 C3.89 3.38, 3.89 3.38, 3.89 3.38 M3.89 3.38 C3.89 3.38, 3.89 3.38, 3.89 3.38 M1.66 12.05 C3.87 10.71, 5.57 8.14, 10.19 2.23 M1.66 12.05 C4.02 8.45, 7.68 5.07, 10.19 2.23 M1.4 18.44 C6.45 13.76, 8.93 6.46, 16.49 1.09 M1.4 18.44 C6.08 12.12, 10.97 7.51, 16.49 1.09 M1.14 24.84 C6.03 19.97, 10.16 13.33, 21.48 1.45 M1.14 24.84 C7.42 17.03, 15.15 10.63, 21.48 1.45 M1.54 30.48 C12.26 22.18, 18.64 12.38, 27.12 1.05 M1.54 30.48 C7.77 23.42, 13.39 17.28, 27.12 1.05 M1.27 36.88 C10.93 26.27, 20.6 13.55, 32.11 1.41 M1.27 36.88 C10.37 26.53, 17.35 16.6, 32.11 1.41 M1.67 42.53 C12.67 31.29, 21.42 20.58, 37.75 1.02 M1.67 42.53 C10.25 31.6, 20.48 21.29, 37.75 1.02 M1.41 48.92 C13.43 35.69, 25.37 22.66, 42.74 1.38 M1.41 48.92 C15.76 32.47, 28.7 18.15, 42.74 1.38 M3.77 52.3 C20.23 35.2, 34.34 20.44, 47.73 1.74 M3.77 52.3 C13.09 41.58, 23.63 28.95, 47.73 1.74 M5.48 56.44 C21.59 36.05, 41.23 19.81, 53.37 1.34 M5.48 56.44 C20.87 38.79, 36.15 20.06, 53.37 1.34 M9.15 58.31 C18.24 46.67, 31.18 33.32, 59.67 0.19 M9.15 58.31 C24.13 43.65, 38.06 25.79, 59.67 0.19 M14.14 58.67 C29.87 39.87, 47.63 18.93, 64.65 0.55 M14.14 58.67 C24.84 45.19, 35.58 33.3, 64.65 0.55 M17.16 61.29 C36.8 38.99, 53.42 19.25, 68.33 2.42 M17.16 61.29 C30.27 46.71, 42.41 31.57, 68.33 2.42 M22.8 60.9 C38.87 39.89, 59.15 18.62, 71.35 5.05 M22.8 60.9 C34.66 47.4, 48.05 32.99, 71.35 5.05 M27.79 61.26 C44.51 44.14, 58.38 25.45, 73.71 8.43 M27.79 61.26 C44.15 44, 59.32 25.77, 73.71 8.43 M33.43 60.86 C42.45 48.42, 52.14 39.49, 74.11 14.07 M33.43 60.86 C43.32 49.04, 54.22 38.17, 74.11 14.07 M38.42 61.22 C52.65 45.65, 64.46 31.71, 77.12 16.69 M38.42 61.22 C47.35 51.23, 56.81 39.08, 77.12 16.69 M44.06 60.83 C54.51 50.85, 63.82 42.06, 76.86 23.09 M44.06 60.83 C52.72 50.77, 62.32 39.77, 76.86 23.09 M49.05 61.19 C60.66 47.68, 68.84 37.81, 76.6 29.49 M49.05 61.19 C58.94 48.95, 69.46 37.59, 76.6 29.49 M54.69 60.79 C63.47 52.5, 70.07 42.19, 77 35.13 M54.69 60.79 C59.77 54.98, 65.29 48.62, 77 35.13 M60.99 59.64 C66.01 52.9, 73.04 47.44, 76.74 41.53 M60.99 59.64 C66.54 54.09, 70 48.81, 76.74 41.53" stroke="#fa5252" stroke-width="0.5" fill="none"></path><path d="M14.63 0 M14.63 0 C24.71 -0.87, 35.44 1.63, 59.47 0 M14.63 0 C22.9 0.11, 32.67 0.26, 59.47 0 M59.47 0 C69.35 1.04, 75.87 5.21, 74.1 14.63 M59.47 0 C67.31 0.84, 72.48 3.08, 74.1 14.63 M74.1 14.63 C74.71 19.72, 75.7 29.17, 74.1 43.88 M74.1 14.63 C73.54 22.56, 74.45 29.86, 74.1 43.88 M74.1 43.88 C74.11 54.46, 70.24 56.58, 59.47 58.5 M74.1 43.88 C72.76 53.28, 68.07 58.52, 59.47 58.5 M59.47 58.5 C48.39 59.69, 40.36 57.33, 14.63 58.5 M59.47 58.5 C47.62 58.34, 37.01 59.45, 14.63 58.5 M14.63 58.5 C3.1 57.45, 1.54 51.72, 0 43.88 M14.63 58.5 C6.58 56.86, -1.06 51.45, 0 43.88 M0 43.88 C1 36.84, 1.17 29.64, 0 14.63 M0 43.88 C0.54 35.07, 1.21 24.26, 0 14.63 M0 14.63 C-1.71 3.87, 4.06 -0.47, 14.63 0 M0 14.63 C0.77 6.98, 2.61 0.3, 14.63 0" stroke="#000000" stroke-width="1" fill="none"></path></g><g stroke-linecap="round" transform="translate(29.84937448695223 213.7729076437113) rotate(0 37.04785159804202 29.251716479694238)"><path d="M3.89 3.38 C3.89 3.38, 3.89 3.38, 3.89 3.38 M3.89 3.38 C3.89 3.38, 3.89 3.38, 3.89 3.38 M1.66 12.05 C3.87 10.71, 5.57 8.14, 10.19 2.23 M1.66 12.05 C4.02 8.45, 7.68 5.07, 10.19 2.23 M1.4 18.44 C6.45 13.76, 8.93 6.46, 16.49 1.09 M1.4 18.44 C6.08 12.12, 10.97 7.51, 16.49 1.09 M1.14 24.84 C6.03 19.97, 10.16 13.33, 21.48 1.45 M1.14 24.84 C7.42 17.03, 15.15 10.63, 21.48 1.45 M1.54 30.48 C12.26 22.18, 18.64 12.38, 27.12 1.05 M1.54 30.48 C7.77 23.42, 13.39 17.28, 27.12 1.05 M1.27 36.88 C10.93 26.27, 20.6 13.55, 32.11 1.41 M1.27 36.88 C10.37 26.53, 17.35 16.6, 32.11 1.41 M1.67 42.53 C12.67 31.29, 21.42 20.58, 37.75 1.02 M1.67 42.53 C10.25 31.6, 20.48 21.29, 37.75 1.02 M1.41 48.92 C13.43 35.69, 25.37 22.66, 42.74 1.38 M1.41 48.92 C15.76 32.47, 28.7 18.15, 42.74 1.38 M3.77 52.3 C20.23 35.2, 34.34 20.44, 47.73 1.74 M3.77 52.3 C13.09 41.58, 23.63 28.95, 47.73 1.74 M5.48 56.44 C21.59 36.05, 41.23 19.81, 53.37 1.34 M5.48 56.44 C20.87 38.79, 36.15 20.06, 53.37 1.34 M9.15 58.31 C18.24 46.67, 31.18 33.32, 59.67 0.19 M9.15 58.31 C24.13 43.65, 38.06 25.79, 59.67 0.19 M14.14 58.67 C29.87 39.87, 47.63 18.93, 64.65 0.55 M14.14 58.67 C24.84 45.19, 35.58 33.3, 64.65 0.55 M17.16 61.29 C36.8 38.99, 53.42 19.25, 68.33 2.42 M17.16 61.29 C30.27 46.71, 42.41 31.57, 68.33 2.42 M22.8 60.9 C38.87 39.89, 59.15 18.62, 71.35 5.05 M22.8 60.9 C34.66 47.4, 48.05 32.99, 71.35 5.05 M27.79 61.26 C44.51 44.14, 58.38 25.45, 73.71 8.43 M27.79 61.26 C44.15 44, 59.32 25.77, 73.71 8.43 M33.43 60.86 C42.45 48.42, 52.14 39.49, 74.11 14.07 M33.43 60.86 C43.32 49.04, 54.22 38.17, 74.11 14.07 M38.42 61.22 C52.65 45.65, 64.46 31.71, 77.12 16.69 M38.42 61.22 C47.35 51.23, 56.81 39.08, 77.12 16.69 M44.06 60.83 C54.51 50.85, 63.82 42.06, 76.86 23.09 M44.06 60.83 C52.72 50.77, 62.32 39.77, 76.86 23.09 M49.05 61.19 C60.66 47.68, 68.84 37.81, 76.6 29.49 M49.05 61.19 C58.94 48.95, 69.46 37.59, 76.6 29.49 M54.69 60.79 C63.47 52.5, 70.07 42.19, 77 35.13 M54.69 60.79 C59.77 54.98, 65.29 48.62, 77 35.13 M60.99 59.64 C66.01 52.9, 73.04 47.44, 76.74 41.53 M60.99 59.64 C66.54 54.09, 70 48.81, 76.74 41.53" stroke="#fa5252" stroke-width="0.5" fill="none"></path><path d="M14.63 0 M14.63 0 C24.71 -0.87, 35.44 1.63, 59.47 0 M14.63 0 C22.9 0.11, 32.67 0.26, 59.47 0 M59.47 0 C69.35 1.04, 75.87 5.21, 74.1 14.63 M59.47 0 C67.31 0.84, 72.48 3.08, 74.1 14.63 M74.1 14.63 C74.71 19.72, 75.7 29.17, 74.1 43.88 M74.1 14.63 C73.54 22.56, 74.45 29.86, 74.1 43.88 M74.1 43.88 C74.11 54.46, 70.24 56.58, 59.47 58.5 M74.1 43.88 C72.76 53.28, 68.07 58.52, 59.47 58.5 M59.47 58.5 C48.39 59.69, 40.36 57.33, 14.63 58.5 M59.47 58.5 C47.62 58.34, 37.01 59.45, 14.63 58.5 M14.63 58.5 C3.1 57.45, 1.54 51.72, 0 43.88 M14.63 58.5 C6.58 56.86, -1.06 51.45, 0 43.88 M0 43.88 C1 36.84, 1.17 29.64, 0 14.63 M0 43.88 C0.54 35.07, 1.21 24.26, 0 14.63 M0 14.63 C-1.71 3.87, 4.06 -0.47, 14.63 0 M0 14.63 C0.77 6.98, 2.61 0.3, 14.63 0" stroke="#000000" stroke-width="1" fill="none"></path></g><g stroke-linecap="round"><g transform="translate(353.7917630000535 519.2070338913572) rotate(0 -0.11814068122995991 23.101213282767958)"><path d="M0.13 -0.57 C-0.12 7.15, -1.25 37.43, -1.07 45.29 M-1.26 1.74 C-1.19 9.75, 0.64 39.59, 1.02 46.77" stroke="#000000" stroke-width="4" fill="none"></path></g></g><mask></mask><g stroke-linecap="round"><g transform="translate(353.59983521803167 458.58015397264955) rotate(0 -0.11814068122995991 23.101213282767958)"><path d="M0.13 -0.57 C-0.12 7.15, -1.25 37.43, -1.07 45.29 M-1.26 1.74 C-1.19 9.75, 0.64 39.59, 1.02 46.77" stroke="#000000" stroke-width="4" fill="none"></path></g></g><mask></mask><g stroke-linecap="round"><g transform="translate(350.1743169573439 396.59599165210113) rotate(0 -0.11814068122995991 23.101213282767958)"><path d="M0.13 -0.57 C-0.12 7.15, -1.25 37.43, -1.07 45.29 M-1.26 1.74 C-1.19 9.75, 0.64 39.59, 1.02 46.77" stroke="#000000" stroke-width="4" fill="none"></path></g></g><mask></mask><g stroke-linecap="round"><g transform="translate(509.0991501769689 102.0534384844365) rotate(0 30.878562336265816 5.923428484407708)"><path d="M0.96 0.97 C6.6 2.52, 23.35 10.26, 33.49 10.46 C43.62 10.67, 56.82 3.69, 61.75 2.19 M0.01 0.43 C5.59 2.6, 22.91 10.85, 33.02 11.39 C43.14 11.92, 55.58 5.14, 60.7 3.64" stroke="#000000" stroke-width="4" fill="none"></path></g></g><mask></mask><g stroke-linecap="round"><g transform="translate(510.6079770856112 89.7079368574646) rotate(0 30.878562336265816 5.923428484407708)"><path d="M0.96 0.97 C6.6 2.52, 23.35 10.26, 33.49 10.46 C43.62 10.67, 56.82 3.69, 61.75 2.19 M0.01 0.43 C5.59 2.6, 22.91 10.85, 33.02 11.39 C43.14 11.92, 55.58 5.14, 60.7 3.64" stroke="#000000" stroke-width="4" fill="none"></path></g></g><mask></mask><g stroke-linecap="round"><g transform="translate(138.68823799740258 18.709641355235476) rotate(0 30.878562336265816 5.923428484407708)"><path d="M0.96 0.97 C6.6 2.52, 23.35 10.26, 33.49 10.46 C43.62 10.67, 56.82 3.69, 61.75 2.19 M0.01 0.43 C5.59 2.6, 22.91 10.85, 33.02 11.39 C43.14 11.92, 55.58 5.14, 60.7 3.64" stroke="#000000" stroke-width="4" fill="none"></path></g></g><mask></mask><g stroke-linecap="round"><g transform="translate(138.0238055761486 9.570004271762457) rotate(0 30.878562336265816 5.923428484407708)"><path d="M0.96 0.97 C6.6 2.52, 23.35 10.26, 33.49 10.46 C43.62 10.67, 56.82 3.69, 61.75 2.19 M0.01 0.43 C5.59 2.6, 22.91 10.85, 33.02 11.39 C43.14 11.92, 55.58 5.14, 60.7 3.64" stroke="#000000" stroke-width="4" fill="none"></path></g></g><mask></mask><g stroke-linecap="round"><g transform="translate(30.068302287275067 186.89225233956338) rotate(0 30.878562336265816 5.923428484407708)"><path d="M0.96 0.97 C6.6 2.52, 23.35 10.26, 33.49 10.46 C43.62 10.67, 56.82 3.69, 61.75 2.19 M0.01 0.43 C5.59 2.6, 22.91 10.85, 33.02 11.39 C43.14 11.92, 55.58 5.14, 60.7 3.64" stroke="#000000" stroke-width="4" fill="none"></path></g></g><mask></mask><g stroke-linecap="round"><g transform="translate(29.403869866021076 177.75261525609037) rotate(0 30.878562336265816 5.923428484407708)"><path d="M0.96 0.97 C6.6 2.52, 23.35 10.26, 33.49 10.46 C43.62 10.67, 56.82 3.69, 61.75 2.19 M0.01 0.43 C5.59 2.6, 22.91 10.85, 33.02 11.39 C43.14 11.92, 55.58 5.14, 60.7 3.64" stroke="#000000" stroke-width="4" fill="none"></path></g></g><mask></mask></svg>